<?xml version="1.0" encoding="utf-8"?>
<svg viewBox="-0.747 5.744 495.967 493.714" xmlns="http://www.w3.org/2000/svg">
  <path d="M 283.168 252.949 L 486.078 50 C 495.807 40.315 495.807 24.639 486.078 14.978 C 476.373 5.292 460.614 5.292 450.908 14.978 L 248.173 217.753 L 43.564 11.954 C 33.861 2.172 18.099 2.172 8.396 11.954 C -1.307 21.765 -1.307 37.639 8.396 47.422 L 212.856 253.07 L 7.658 458.299 C -2.047 467.985 -2.047 483.661 7.658 493.322 C 17.361 503.004 33.123 503.004 42.826 493.322 L 247.853 288.267 L 451.649 493.246 C 461.351 503.031 477.114 503.031 486.816 493.246 C 496.519 483.438 496.519 467.561 486.816 457.778 L 283.168 252.949 Z" id="Close" style="paint-order: fill; fill: rgb(155, 242, 214);" transform="matrix(0, 1, -1, 0, 499.83741, 5.364868)"/>
</svg>