<?xml version="1.0" encoding="UTF-8"?>
<svg xmlns="http://www.w3.org/2000/svg" xmlns:xlink="http://www.w3.org/1999/xlink" viewBox="0 0 384 384" width="384px" height="384px">
<g id="surface46048442">
<path style=" stroke:none;fill-rule:nonzero;fill:rgb(60.784316%,94.901961%,83.92157%);fill-opacity:1;" d="M 192 32 C 187.726562 32 183.628906 33.710938 180.625 36.75 L 19.25 177.5625 C 17.207031 179.070312 16 181.460938 16 184 C 16 188.417969 19.582031 192 24 192 L 64 192 L 64 320 C 64 328.832031 71.167969 336 80 336 L 144 336 C 152.832031 336 160 328.832031 160 320 L 160 224 L 224 224 L 224 320 C 224 328.832031 231.167969 336 240 336 L 304 336 C 312.832031 336 320 328.832031 320 320 L 320 192 L 360 192 C 364.417969 192 368 188.417969 368 184 C 368 181.460938 366.792969 179.070312 364.75 177.5625 L 203.46875 36.84375 C 203.4375 36.8125 203.40625 36.78125 203.375 36.75 C 200.371094 33.710938 196.273438 32 192 32 Z M 192 32 "/>
</g>
</svg>
