<svg width="45" height="90" viewBox="0 0 45 90" fill="none" xmlns="http://www.w3.org/2000/svg">
<path d="M0 45C0 69.8529 0 67 0 90C24.8528 90 45 69.8529 45 45C45 20.1472 24.8528 3.05176e-05 0 3.05176e-05C0 40.5 0 20.1472 0 45Z" fill="#001B5B"/>
<path fill-rule="evenodd" clip-rule="evenodd" d="M4 85.8073C24.7665 83.7967 41 66.2941 41 45C41 23.7059 24.7665 6.20329 4 4.19263V85.8073ZM45 45C45 21.4952 26.9791 2.19938 4 0.175349C2.68215 0.0592709 1.348 0 0 0V4V86V90C1.348 90 2.68215 89.9407 4 89.8246C26.9791 87.8006 45 68.5048 45 45ZM15.4377 44.2815L13.5431 45.8537L15.47 47.3861L16.7148 45.8207L15.4377 44.2815ZM16.7148 45.8207C15.4377 44.2815 15.4377 44.2815 15.4378 44.2815L15.438 44.2813L15.4388 44.2806L15.4423 44.2778L15.4558 44.2665L15.5091 44.2223L15.7149 44.0515L16.48 43.4167L19.0742 41.264L25.7234 35.7466L28.2777 38.8248L21.6285 44.3422L19.8866 45.7876L21.5962 47.1471L28.2454 52.4346L25.7557 55.5654L19.1066 50.2779L16.5123 48.2149L15.7472 47.6065L15.5414 47.4428L15.4881 47.4005L15.4746 47.3897L15.4712 47.387L15.4703 47.3863L15.4701 47.3861L16.7148 45.8207Z" fill="#9BF2D6"/>
</svg>
