<?xml version="1.0" encoding="utf-8"?>
<svg viewBox="7.462 27.295 486.714 399.511" xmlns="http://www.w3.org/2000/svg">
  <g transform="matrix(3.960925, 0, 0, 3.85595, 7.461748, 27.294981)" style="">
    <path fill-rule="evenodd" clip-rule="evenodd" d="M10.368,0h102.144c5.703,0,10.367,4.665,10.367,10.367v0 c0,5.702-4.664,10.368-10.367,10.368H10.368C4.666,20.735,0,16.07,0,10.368v0C0,4.665,4.666,0,10.368,0L10.368,0z M10.368,82.875 h102.144c5.703,0,10.367,4.665,10.367,10.367l0,0c0,5.702-4.664,10.367-10.367,10.367H10.368C4.666,103.609,0,98.944,0,93.242l0,0 C0,87.54,4.666,82.875,10.368,82.875L10.368,82.875z M10.368,41.438h102.144c5.703,0,10.367,4.665,10.367,10.367l0,0 c0,5.702-4.664,10.368-10.367,10.368H10.368C4.666,62.173,0,57.507,0,51.805l0,0C0,46.103,4.666,41.438,10.368,41.438 L10.368,41.438z" style="vector-effect: non-scaling-stroke; stroke-width: 21px; stroke-miterlimit: 50; stroke-dashoffset: -35px; stroke-opacity: 0; fill: rgb(155, 242, 214);"/>
  </g>
</svg>