<svg width="45" height="90" viewBox="0 0 45 90" fill="none" xmlns="http://www.w3.org/2000/svg">
<path d="M45 45C45 69.8529 45 67 45 90C20.1472 90 0 69.8529 0 45C0 20.1472 20.1472 3.05176e-05 45 3.05176e-05C45 40.5 45 20.1472 45 45Z" fill="#001B5B"/>
<path fill-rule="evenodd" clip-rule="evenodd" d="M41 85.8073C20.2335 83.7967 4 66.2941 4 45C4 23.7059 20.2335 6.20329 41 4.19263V85.8073ZM0 45C0 21.4952 18.0209 2.19938 41 0.175349C42.3178 0.0592709 43.652 0 45 0V4V86V90C43.652 90 42.3178 89.9407 41 89.8246C18.0209 87.8006 0 68.5048 0 45ZM29.5623 44.2815L31.4569 45.8537L29.53 47.3861L28.2852 45.8207L29.5623 44.2815ZM28.2852 45.8207C29.5623 44.2815 29.5623 44.2815 29.5622 44.2815L29.562 44.2813L29.5612 44.2806L29.5577 44.2778L29.5442 44.2665L29.4909 44.2223L29.2851 44.0515L28.52 43.4167L25.9258 41.264L19.2766 35.7466L16.7223 38.8248L23.3715 44.3422L25.1134 45.7876L23.4038 47.1471L16.7546 52.4346L19.2443 55.5654L25.8934 50.2779L28.4877 48.2149L29.2528 47.6065L29.4586 47.4428L29.5119 47.4005L29.5254 47.3897L29.5288 47.387L29.5297 47.3863L29.5299 47.3861L28.2852 45.8207Z" fill="#9BF2D6"/>
</svg>
