<svg width="719" height="942" viewBox="0 0 719 942" fill="none" xmlns="http://www.w3.org/2000/svg">
<g clip-path="url(#clip0)">
<path d="M414.681 298.107C414.681 298.107 430.781 292.068 423.231 268.921C423.231 268.921 425.75 248.294 448.889 254.836C448.889 254.836 472.508 213.109 489.648 249.325C489.648 249.325 527.879 252.844 518.321 276.495C518.345 276.471 535.429 311.184 414.681 298.107Z" fill="url(#paint0_linear)" stroke="#0C0C0C" stroke-width="3" stroke-miterlimit="10"/>
<path d="M224.774 304.641C224.774 304.641 263.415 293.973 229.498 264.237C229.498 264.237 196.51 241.255 197.581 276.904C197.581 276.904 163.483 221.644 138.431 268.583C138.431 268.583 109.615 306.814 137.88 321.552C137.88 321.552 152.641 337.606 169.175 321.883C169.175 321.883 208.879 348.305 223.019 331.598C223.05 331.598 229.884 323.001 224.774 304.641Z" fill="url(#paint1_radial)" stroke="#0C0C0C" stroke-width="3" stroke-miterlimit="10"/>
<path d="M192.117 290.029C192.117 290.029 208.218 283.998 200.675 260.851C200.675 260.851 203.187 240.224 226.333 246.766C226.333 246.766 249.953 205.039 267.084 241.255C267.084 241.255 305.324 244.775 295.758 268.417C295.758 268.394 312.858 303.114 192.117 290.029Z" fill="url(#paint2_radial)" stroke="#0C0C0C" stroke-width="3" stroke-miterlimit="10"/>
<path d="M409.193 289.564C402.737 302.752 368.166 313.64 348.452 290.131C348.452 290.131 293.144 318.214 290.026 259.308C290.026 259.308 299.923 206.472 340.516 241.137C340.516 241.137 379.047 189.285 395.887 234.524C395.887 234.524 442.338 226.375 429.741 255.907C426.624 263.134 415.208 277.298 409.193 289.564Z" fill="url(#paint3_radial)" stroke="#0C0C0C" stroke-width="3" stroke-miterlimit="10"/>
<path d="M140.777 332.614C140.777 332.614 100.695 332.535 125.511 294.902C125.511 294.902 151.248 264.016 159.641 298.681C159.641 298.681 177.914 236.374 214.484 275.015C214.484 275.015 252.385 304.263 229.026 325.953C229.026 325.953 219.035 345.329 198.927 334.543C198.927 334.543 167.632 370.523 149.571 358.162C149.571 358.146 140.706 351.667 140.777 332.614Z" fill="url(#paint4_radial)" stroke="#0C0C0C" stroke-width="3" stroke-miterlimit="10"/>
<path d="M471.546 334.771C471.546 334.771 431.457 334.7 456.273 297.059C456.273 297.059 482.018 266.173 490.41 300.838C490.41 300.838 508.684 238.531 545.254 277.172C545.254 277.172 583.155 306.42 559.795 328.111C559.795 328.111 549.804 347.494 529.697 336.708C529.697 336.708 498.394 372.688 480.341 360.327C480.341 360.311 471.476 353.824 471.546 334.771Z" fill="url(#paint5_linear)" stroke="#0C0C0C" stroke-width="3" stroke-miterlimit="10"/>
<path d="M283.05 350.478C283.05 350.478 272.193 389.056 242.622 355.036C242.622 355.036 219.79 321.97 255.447 323.182C255.447 323.182 200.336 288.808 247.417 263.985C247.417 263.985 285.782 235.358 300.387 263.693C300.387 263.693 316.361 278.534 300.56 294.997C300.56 294.997 326.793 334.826 310.007 348.88C310.015 348.88 301.379 355.674 283.05 350.478Z" fill="url(#paint6_radial)" stroke="#0C0C0C" stroke-width="3" stroke-miterlimit="10"/>
<path d="M235.19 299.272C235.19 299.272 250.299 262.142 275.878 299.272C275.878 299.272 294.852 334.7 259.573 329.504C259.573 329.504 310.48 369.806 260.943 389.221C260.943 389.221 219.617 413.384 208.272 383.6C208.272 383.6 194.054 367.066 211.595 352.47C211.595 352.47 189.975 309.955 208.217 297.862C208.217 297.847 217.594 292.068 235.19 299.272Z" fill="url(#paint7_radial)" stroke="#0C0C0C" stroke-width="3" stroke-miterlimit="10"/>
<path d="M281.775 296.508C281.775 296.508 314.015 289.682 322.361 269.74C322.361 269.74 337.808 223.407 368.694 259.828C370.921 262.495 373.964 264.355 377.354 265.118C389.542 267.78 417.625 277.282 400.745 306.641C400.745 306.641 382.023 343.542 343.87 340.77C343.902 340.786 287.31 343.558 281.775 296.508Z" fill="url(#paint8_radial)" stroke="#0C0C0C" stroke-width="3" stroke-miterlimit="10"/>
<path d="M355.514 324.647C355.514 324.647 315.078 312.837 362.671 272.385C362.671 272.385 371.103 279.243 396.58 250.829C398.663 248.481 401.45 246.872 404.524 246.242C407.599 245.612 410.795 245.995 413.633 247.333C420.884 250.829 429.804 256.781 433.316 265.78C433.316 265.78 472.594 256.805 472.634 296.272C472.634 296.272 473.996 327.512 443.456 326.631C443.456 326.631 436.37 307.412 414.09 310.097C391.809 312.782 370.095 308.727 355.514 324.647Z" fill="url(#paint9_radial)" stroke="#0C0C0C" stroke-width="3" stroke-miterlimit="10"/>
<path d="M267.045 327.764C267.045 327.764 283.145 321.726 275.595 298.579C275.595 298.579 278.114 277.952 301.253 284.494C301.253 284.494 324.872 242.767 342.012 278.983C342.012 278.983 380.243 282.51 370.686 306.153C370.686 306.145 387.794 340.841 267.045 327.764Z" fill="url(#paint10_radial)" stroke="#0C0C0C" stroke-width="3" stroke-miterlimit="10"/>
<path d="M414.681 331.339C414.681 331.339 430.781 325.3 423.231 302.161C423.231 302.161 425.75 281.526 448.889 288.068C448.889 288.068 472.508 246.341 489.648 282.557C489.648 282.557 527.879 286.084 518.321 309.727C518.345 309.735 535.429 344.447 414.681 331.339Z" fill="url(#paint11_radial)" stroke="#0C0C0C" stroke-width="3" stroke-miterlimit="10"/>
<path d="M336.879 350.565C336.879 350.565 352.979 344.526 345.437 321.379C345.437 321.379 347.948 300.752 371.095 307.294C371.095 307.294 394.714 265.567 411.846 301.783C411.846 301.783 450.085 305.31 440.527 328.953C440.527 328.929 457.636 363.618 336.879 350.565Z" fill="url(#paint12_radial)" stroke="#0C0C0C" stroke-width="3" stroke-miterlimit="10"/>
<path d="M117.503 331.008C117.503 331.008 141.799 292.485 180.432 328.741L251.447 761.891H214.845L117.503 331.008Z" fill="#A81616"/>
<path d="M245.645 329.079C245.645 329.079 268.602 290.115 310.668 329.079L325.186 468.589L264.186 467.802L245.645 329.079Z" fill="#A81616"/>
<path d="M325.186 468.589L356.009 763.828H298.402L264.186 467.833" fill="#A81616"/>
<path d="M379.147 328.315C379.147 328.315 403.932 289.612 443.368 329.103L454.24 527.771L396.767 528.865L379.147 328.315Z" fill="#A81616"/>
<path d="M396.775 528.865L414.82 763.828H467.263L454.241 527.771L396.775 528.865Z" fill="#A81616"/>
<path d="M505.454 329.764C505.454 329.764 526.333 288.375 559.778 328.134L509.572 637.072L505.454 329.764Z" fill="#A81616"/>
<path d="M212.965 528.542L181.591 328.693C181.591 328.693 208.021 290.548 244.929 328.315L271.304 527.771" fill="white"/>
<path d="M290.805 697.616L298.402 763.828H253.518L212.964 528.542L271.303 527.771L285.608 634.828L290.805 697.616Z" fill="white"/>
<path d="M310.669 329.079C310.669 329.079 334.446 287.62 379.164 329.992L396.792 528.865L328.927 504.309L310.669 329.079Z" fill="white"/>
<path d="M328.676 501.963L356.011 763.828H414.823L396.778 528.865" fill="white"/>
<path d="M454.289 528.542L467.264 763.828H489.363L509.574 647.166L505.456 329.764C466.878 288.297 443.369 330.732 443.369 330.732L451.069 468.613L454.289 528.542Z" fill="white"/>
<path d="M115 330.654L214.137 763.828H489.292L559.795 328.111C559.795 328.111 534.633 288.824 505.377 329.764C505.377 329.764 471.381 287.722 443.298 330.732C443.298 330.732 408.436 286.895 379.077 330.016C379.077 330.016 339.712 286.62 310.582 329.307C310.582 329.307 274.831 287.722 245.59 329.103C245.59 329.103 209.673 289.1 182.031 329.103C182.015 329.079 145.61 289.076 115 330.654Z" stroke="#161616" stroke-width="5" stroke-miterlimit="10"/>
<path d="M212.887 528.542L253.449 763.828" stroke="#161616" stroke-width="5" stroke-miterlimit="10"/>
<path d="M264.187 467.826L286.955 645.796" stroke="#161616" stroke-width="5" stroke-miterlimit="10"/>
<path d="M328.596 501.963L342.145 631.742" stroke="#161616" stroke-width="5" stroke-miterlimit="10"/>
<path d="M396.705 527.771L414.75 763.828" stroke="#161616" stroke-width="5" stroke-miterlimit="10"/>
<path d="M454.171 527.771L467.193 763.828" stroke="#161616" stroke-width="5" stroke-miterlimit="10"/>
<path d="M443.299 329.079L454.242 527.771" stroke="#161616" stroke-width="5" stroke-miterlimit="10"/>
<path d="M379.078 328.315L396.777 528.865" stroke="#161616" stroke-width="5" stroke-miterlimit="10"/>
<path d="M310.59 329.079L328.674 501.963" stroke="#161616" stroke-width="5" stroke-miterlimit="10"/>
<path d="M245.575 329.079L264.116 467.826" stroke="#161616" stroke-width="5" stroke-miterlimit="10"/>
<path d="M181.512 328.693L212.886 528.543" stroke="#161616" stroke-width="5" stroke-miterlimit="10"/>
<path d="M341.264 623.255L355.939 763.828" stroke="#161616" stroke-width="5" stroke-miterlimit="10"/>
<path d="M290.538 689.192L298.332 763.828" stroke="#161616" stroke-width="5" stroke-miterlimit="10"/>
<path d="M505.377 329.74L509.4 639.552" stroke="#161616" stroke-width="5" stroke-miterlimit="10"/>
<path d="M334.209 726.416C381.791 726.416 420.364 704.353 420.364 677.138C420.364 649.923 381.791 627.861 334.209 627.861C286.627 627.861 248.055 649.923 248.055 677.138C248.055 704.353 286.627 726.416 334.209 726.416Z" fill="#0F0F0F"/>
<path d="M345.793 701.032C347.434 692.116 333.044 681.994 313.651 678.424C294.257 674.854 277.206 679.188 275.565 688.104C273.923 697.02 288.314 707.142 307.707 710.712C327.1 714.282 344.152 709.948 345.793 701.032Z" fill="#BC0000"/>
<path d="M212.176 486.39C211.617 485.209 255.021 443.199 305.787 486.39" stroke="#111111" stroke-width="17" stroke-miterlimit="10" stroke-linecap="round"/>
<path d="M369.889 486.367C369.33 485.186 412.734 443.175 463.5 486.367" stroke="#111111" stroke-width="17" stroke-miterlimit="10" stroke-linecap="round"/>
<path d="M203.209 434.208C203.209 434.208 276.208 444.23 280.814 408.038" stroke="#111111" stroke-width="9" stroke-miterlimit="10" stroke-linecap="round"/>
<path d="M467.389 433.767C467.389 433.767 396.595 440.608 391.989 404.416" stroke="#111111" stroke-width="9" stroke-miterlimit="10" stroke-linecap="round"/>
<path d="M196.997 501.184C196.997 501.184 152.648 493.704 155.75 514.048C155.75 514.048 158.254 534.66 196.997 501.184Z" fill="#00E2F9" stroke="#161616" stroke-linejoin="round"/>
<path d="M224.679 552.445C224.679 552.445 217.774 600.423 238.425 598.369C238.394 598.369 259.32 596.975 224.679 552.445Z" fill="#00E2F9" stroke="#161616" stroke-linejoin="round"/>
<path d="M194.124 525.346C194.124 525.346 161.262 557.059 184.771 565.577C184.771 565.577 206.69 569.152 194.124 525.346Z" fill="#00E2F9" stroke="#161616" stroke-linejoin="round"/>
<path d="M150.523 550.004C150.523 550.004 116.236 571.553 135.092 583.221C135.092 583.221 153.468 590.306 150.523 550.004Z" fill="#00E2F9" stroke="#161616" stroke-linejoin="round"/>
<path d="M197.305 588.236C197.305 588.236 166.159 624.216 191.345 630.853C191.345 630.853 214.444 632.514 197.305 588.236Z" fill="#00E2F9" stroke="#161616" stroke-linejoin="round"/>
<path d="M211.099 505.238C211.099 505.238 239.016 556.295 253.534 543.407C253.534 543.407 268.249 531.778 211.099 505.238Z" fill="#00E2F9" stroke="#161616" stroke-linejoin="round"/>
<path d="M484.167 506.64C484.167 506.64 528.516 499.16 525.43 519.504C525.43 519.504 522.91 540.108 484.167 506.64Z" fill="#00E2F9" stroke="#161616" stroke-linejoin="round"/>
<path d="M456.517 557.893C456.517 557.893 463.422 605.879 442.771 603.824C442.763 603.824 421.844 602.431 456.517 557.893Z" fill="#00E2F9" stroke="#161616" stroke-linejoin="round"/>
<path d="M487.04 530.802C487.04 530.802 519.903 562.515 496.394 571.025C496.394 571.025 474.475 574.616 487.04 530.802Z" fill="#00E2F9" stroke="#161616" stroke-linejoin="round"/>
<path d="M530.642 555.453C530.642 555.453 564.929 577.001 546.073 588.669C546.073 588.669 527.697 595.762 530.642 555.453Z" fill="#00E2F9" stroke="#161616" stroke-linejoin="round"/>
<path d="M483.859 593.692C483.859 593.692 515.005 629.656 489.819 636.301C489.819 636.301 466.743 637.97 483.859 593.692Z" fill="#00E2F9" stroke="#161616" stroke-linejoin="round"/>
<path d="M463.902 518.229C463.902 518.229 445.007 560.893 425.97 545.115C425.97 545.115 407.043 530.527 463.902 518.229Z" fill="#00E2F9" stroke="#161616" stroke-linejoin="round"/>
<path d="M105.96 212.384C104.723 212.384 103.72 212 102.952 211.232C102.227 210.464 101.864 209.461 101.864 208.224V170.656C101.864 169.419 102.227 168.437 102.952 167.712C103.72 166.944 104.723 166.56 105.96 166.56C107.24 166.56 108.243 166.944 108.968 167.712C109.736 168.437 110.12 169.419 110.12 170.656V208.224C110.12 209.461 109.736 210.464 108.968 211.232C108.243 212 107.24 212.384 105.96 212.384ZM156.344 179.936C159.757 179.936 162.36 180.96 164.152 183.008C165.987 185.013 166.904 188.277 166.904 192.8V208.544C166.904 209.781 166.52 210.741 165.752 211.424C165.027 212.064 164.067 212.384 162.872 212.384C161.72 212.384 160.76 212.064 159.992 211.424C159.267 210.741 158.904 209.781 158.904 208.544V192.8C158.904 190.453 158.477 188.789 157.624 187.808C156.813 186.784 155.555 186.272 153.848 186.272C151.757 186.272 150.093 186.997 148.856 188.448C147.619 189.856 147 191.797 147 194.272V208.544C147 209.781 146.616 210.741 145.848 211.424C145.123 212.064 144.184 212.384 143.032 212.384C141.88 212.384 140.92 212.064 140.152 211.424C139.384 210.741 139 209.781 139 208.544V192.8C139 190.453 138.573 188.789 137.72 187.808C136.909 186.784 135.651 186.272 133.944 186.272C131.853 186.272 130.189 186.997 128.952 188.448C127.757 189.856 127.16 191.797 127.16 194.272V208.544C127.16 209.781 126.776 210.741 126.008 211.424C125.24 212.064 124.28 212.384 123.128 212.384C121.976 212.384 121.016 212.064 120.248 211.424C119.523 210.741 119.16 209.781 119.16 208.544V183.776C119.16 182.581 119.544 181.664 120.312 181.024C121.08 180.384 122.04 180.064 123.192 180.064C124.301 180.064 125.197 180.384 125.88 181.024C126.605 181.621 126.968 182.496 126.968 183.648V185.184C127.949 183.477 129.251 182.176 130.872 181.28C132.536 180.384 134.435 179.936 136.568 179.936C141.261 179.936 144.397 181.899 145.976 185.824C146.915 184.032 148.301 182.603 150.136 181.536C151.971 180.469 154.04 179.936 156.344 179.936ZM188.603 179.936C192.955 179.936 196.176 181.024 198.267 183.2C200.4 185.333 201.467 188.597 201.467 192.992V208.608C201.467 209.76 201.126 210.677 200.443 211.36C199.76 212 198.822 212.32 197.627 212.32C196.518 212.32 195.6 211.979 194.875 211.296C194.192 210.613 193.851 209.717 193.851 208.608V207.2C193.126 208.864 191.974 210.165 190.395 211.104C188.859 212.043 187.067 212.512 185.019 212.512C182.928 212.512 181.03 212.085 179.323 211.232C177.616 210.379 176.272 209.205 175.291 207.712C174.31 206.219 173.819 204.555 173.819 202.72C173.819 200.416 174.395 198.603 175.547 197.28C176.742 195.957 178.662 194.997 181.307 194.4C183.952 193.803 187.6 193.504 192.251 193.504H193.851V192.032C193.851 189.941 193.403 188.427 192.507 187.488C191.611 186.507 190.16 186.016 188.155 186.016C186.918 186.016 185.659 186.208 184.379 186.592C183.099 186.933 181.584 187.445 179.835 188.128C178.726 188.683 177.915 188.96 177.403 188.96C176.635 188.96 175.995 188.683 175.483 188.128C175.014 187.573 174.779 186.848 174.779 185.952C174.779 185.227 174.95 184.608 175.291 184.096C175.675 183.541 176.294 183.029 177.147 182.56C178.64 181.749 180.411 181.109 182.459 180.64C184.55 180.171 186.598 179.936 188.603 179.936ZM186.619 206.752C188.752 206.752 190.48 206.048 191.803 204.64C193.168 203.189 193.851 201.333 193.851 199.072V197.728H192.699C189.84 197.728 187.622 197.856 186.043 198.112C184.464 198.368 183.334 198.816 182.651 199.456C181.968 200.096 181.627 200.971 181.627 202.08C181.627 203.445 182.096 204.576 183.035 205.472C184.016 206.325 185.211 206.752 186.619 206.752ZM236.094 180.064C237.288 180.064 238.248 180.405 238.974 181.088C239.699 181.771 240.062 182.688 240.062 183.84V209.12C240.062 214.027 238.696 217.739 235.966 220.256C233.235 222.773 229.203 224.032 223.87 224.032C219.219 224.032 215.336 223.157 212.222 221.408C210.643 220.469 209.854 219.339 209.854 218.016C209.854 217.077 210.067 216.331 210.494 215.776C210.963 215.221 211.56 214.944 212.286 214.944C212.67 214.944 213.139 215.029 213.694 215.2C214.248 215.413 214.824 215.648 215.422 215.904C216.958 216.544 218.323 217.035 219.518 217.376C220.755 217.717 222.163 217.888 223.742 217.888C229.331 217.888 232.126 215.157 232.126 209.696V205.6C231.187 207.349 229.822 208.715 228.03 209.696C226.238 210.635 224.19 211.104 221.885 211.104C219.155 211.104 216.723 210.464 214.59 209.184C212.499 207.861 210.856 206.027 209.661 203.68C208.467 201.333 207.87 198.624 207.87 195.552C207.87 192.48 208.446 189.771 209.598 187.424C210.792 185.035 212.456 183.2 214.59 181.92C216.723 180.597 219.155 179.936 221.885 179.936C224.19 179.936 226.238 180.427 228.03 181.408C229.822 182.347 231.187 183.691 232.126 185.44V183.776C232.126 182.667 232.488 181.771 233.214 181.088C233.939 180.405 234.899 180.064 236.094 180.064ZM223.998 204.896C226.558 204.896 228.542 204.064 229.95 202.4C231.4 200.736 232.126 198.453 232.126 195.552C232.126 192.608 231.4 190.304 229.95 188.64C228.542 186.976 226.558 186.144 223.998 186.144C221.48 186.144 219.496 186.976 218.046 188.64C216.595 190.304 215.87 192.608 215.87 195.552C215.87 198.453 216.595 200.736 218.046 202.4C219.496 204.064 221.48 204.896 223.998 204.896ZM273.116 203.424C273.841 203.424 274.417 203.701 274.844 204.256C275.313 204.811 275.548 205.557 275.548 206.496C275.548 207.819 274.758 208.928 273.18 209.824C271.729 210.635 270.086 211.296 268.252 211.808C266.417 212.277 264.668 212.512 263.003 212.512C257.969 212.512 253.98 211.061 251.036 208.16C248.092 205.259 246.62 201.291 246.62 196.256C246.62 193.056 247.26 190.219 248.54 187.744C249.82 185.269 251.612 183.349 253.916 181.984C256.262 180.619 258.908 179.936 261.852 179.936C264.668 179.936 267.121 180.555 269.212 181.792C271.302 183.029 272.924 184.779 274.076 187.04C275.228 189.301 275.804 191.968 275.804 195.04C275.804 196.875 274.993 197.792 273.372 197.792H254.492C254.748 200.736 255.58 202.912 256.988 204.32C258.396 205.685 260.444 206.368 263.132 206.368C264.497 206.368 265.692 206.197 266.716 205.856C267.782 205.515 268.977 205.045 270.3 204.448C271.58 203.765 272.518 203.424 273.116 203.424ZM262.044 185.568C259.868 185.568 258.118 186.251 256.796 187.616C255.516 188.981 254.748 190.944 254.492 193.504H268.956C268.87 190.901 268.23 188.939 267.036 187.616C265.841 186.251 264.177 185.568 262.044 185.568ZM334.603 166.56C335.797 166.56 336.736 166.944 337.419 167.712C338.144 168.437 338.507 169.419 338.507 170.656V208.224C338.507 209.461 338.144 210.464 337.419 211.232C336.693 212 335.755 212.384 334.603 212.384C333.237 212.384 332.192 211.893 331.467 210.912L308.107 180.512V208.224C308.107 209.461 307.765 210.464 307.083 211.232C306.4 212 305.461 212.384 304.267 212.384C303.072 212.384 302.133 212 301.451 211.232C300.768 210.464 300.427 209.461 300.427 208.224V170.656C300.427 169.419 300.789 168.437 301.515 167.712C302.24 166.944 303.2 166.56 304.395 166.56C305.717 166.56 306.741 167.051 307.467 168.032L330.763 198.304V170.656C330.763 169.419 331.104 168.437 331.787 167.712C332.512 166.944 333.451 166.56 334.603 166.56ZM361.807 212.512C358.607 212.512 355.791 211.851 353.359 210.528C350.97 209.205 349.114 207.307 347.791 204.832C346.468 202.357 345.807 199.477 345.807 196.192C345.807 192.907 346.468 190.048 347.791 187.616C349.114 185.141 350.97 183.243 353.359 181.92C355.791 180.597 358.607 179.936 361.807 179.936C365.007 179.936 367.802 180.597 370.191 181.92C372.623 183.243 374.479 185.141 375.759 187.616C377.082 190.048 377.743 192.907 377.743 196.192C377.743 199.477 377.082 202.357 375.759 204.832C374.479 207.307 372.623 209.205 370.191 210.528C367.802 211.851 365.007 212.512 361.807 212.512ZM361.743 206.304C364.346 206.304 366.33 205.451 367.695 203.744C369.06 202.037 369.743 199.52 369.743 196.192C369.743 192.907 369.06 190.411 367.695 188.704C366.33 186.955 364.367 186.08 361.807 186.08C359.247 186.08 357.263 186.955 355.855 188.704C354.49 190.411 353.807 192.907 353.807 196.192C353.807 199.52 354.49 202.037 355.855 203.744C357.22 205.451 359.183 206.304 361.743 206.304ZM400.416 206.432C402.549 206.56 403.616 207.52 403.616 209.312C403.616 210.336 403.189 211.125 402.336 211.68C401.525 212.192 400.352 212.405 398.816 212.32L397.088 212.192C389.92 211.68 386.336 207.84 386.336 200.672V186.72H383.136C381.984 186.72 381.088 186.464 380.448 185.952C379.851 185.44 379.552 184.693 379.552 183.712C379.552 182.731 379.851 181.984 380.448 181.472C381.088 180.96 381.984 180.704 383.136 180.704H386.336V174.816C386.336 173.664 386.699 172.747 387.424 172.064C388.149 171.381 389.131 171.04 390.368 171.04C391.563 171.04 392.523 171.381 393.248 172.064C393.973 172.747 394.336 173.664 394.336 174.816V180.704H399.776C400.928 180.704 401.803 180.96 402.4 181.472C403.04 181.984 403.36 182.731 403.36 183.712C403.36 184.693 403.04 185.44 402.4 185.952C401.803 186.464 400.928 186.72 399.776 186.72H394.336V201.248C394.336 204.405 395.787 206.091 398.688 206.304L400.416 206.432ZM429.96 212.384C428.723 212.384 427.72 212 426.952 211.232C426.227 210.464 425.864 209.461 425.864 208.224V170.784C425.864 169.547 426.205 168.587 426.888 167.904C427.613 167.221 428.595 166.88 429.832 166.88H452.296C454.899 166.88 456.2 167.989 456.2 170.208C456.2 172.384 454.899 173.472 452.296 173.472H433.992V185.76H451.016C453.619 185.76 454.92 186.869 454.92 189.088C454.92 191.264 453.619 192.352 451.016 192.352H433.992V208.224C433.992 209.461 433.629 210.464 432.904 211.232C432.179 212 431.197 212.384 429.96 212.384ZM475.057 212.512C471.857 212.512 469.041 211.851 466.609 210.528C464.22 209.205 462.364 207.307 461.041 204.832C459.718 202.357 459.057 199.477 459.057 196.192C459.057 192.907 459.718 190.048 461.041 187.616C462.364 185.141 464.22 183.243 466.609 181.92C469.041 180.597 471.857 179.936 475.057 179.936C478.257 179.936 481.052 180.597 483.441 181.92C485.873 183.243 487.729 185.141 489.009 187.616C490.332 190.048 490.993 192.907 490.993 196.192C490.993 199.477 490.332 202.357 489.009 204.832C487.729 207.307 485.873 209.205 483.441 210.528C481.052 211.851 478.257 212.512 475.057 212.512ZM474.993 206.304C477.596 206.304 479.58 205.451 480.945 203.744C482.31 202.037 482.993 199.52 482.993 196.192C482.993 192.907 482.31 190.411 480.945 188.704C479.58 186.955 477.617 186.08 475.057 186.08C472.497 186.08 470.513 186.955 469.105 188.704C467.74 190.411 467.057 192.907 467.057 196.192C467.057 199.52 467.74 202.037 469.105 203.744C470.47 205.451 472.433 206.304 474.993 206.304ZM522.302 180.064C523.539 180.064 524.52 180.405 525.246 181.088C525.971 181.771 526.333 182.688 526.333 183.84V208.672C526.333 209.781 525.95 210.677 525.182 211.36C524.456 212.043 523.496 212.384 522.302 212.384C521.15 212.384 520.232 212.064 519.55 211.424C518.867 210.784 518.526 209.909 518.526 208.8V207.2C517.544 208.907 516.222 210.229 514.558 211.168C512.894 212.064 511.016 212.512 508.926 212.512C501.246 212.512 497.406 208.203 497.406 199.584V183.84C497.406 182.688 497.768 181.771 498.494 181.088C499.219 180.405 500.179 180.064 501.374 180.064C502.611 180.064 503.592 180.405 504.318 181.088C505.043 181.771 505.406 182.688 505.406 183.84V199.648C505.406 201.867 505.854 203.509 506.75 204.576C507.646 205.643 509.054 206.176 510.974 206.176C513.192 206.176 514.963 205.451 516.286 204C517.651 202.507 518.334 200.544 518.334 198.112V183.84C518.334 182.688 518.696 181.771 519.422 181.088C520.147 180.405 521.107 180.064 522.302 180.064ZM552.836 179.936C556.591 179.936 559.385 181.003 561.22 183.136C563.055 185.269 563.972 188.491 563.972 192.8V208.544C563.972 209.739 563.609 210.677 562.884 211.36C562.201 212.043 561.241 212.384 560.004 212.384C558.767 212.384 557.785 212.043 557.06 211.36C556.335 210.677 555.972 209.739 555.972 208.544V193.248C555.972 190.816 555.503 189.045 554.564 187.936C553.668 186.827 552.239 186.272 550.276 186.272C547.972 186.272 546.116 186.997 544.708 188.448C543.343 189.899 542.66 191.84 542.66 194.272V208.544C542.66 209.739 542.297 210.677 541.572 211.36C540.847 212.043 539.865 212.384 538.628 212.384C537.391 212.384 536.409 212.043 535.684 211.36C535.001 210.677 534.66 209.739 534.66 208.544V183.776C534.66 182.667 535.023 181.771 535.748 181.088C536.473 180.405 537.455 180.064 538.692 180.064C539.801 180.064 540.697 180.405 541.38 181.088C542.105 181.728 542.468 182.581 542.468 183.648V185.376C543.535 183.627 544.964 182.283 546.756 181.344C548.548 180.405 550.575 179.936 552.836 179.936ZM598.21 166.56C599.404 166.56 600.386 166.901 601.154 167.584C601.922 168.267 602.306 169.163 602.306 170.272V208.544C602.306 209.696 601.943 210.613 601.218 211.296C600.492 211.979 599.532 212.32 598.338 212.32C597.143 212.32 596.183 211.979 595.458 211.296C594.732 210.613 594.37 209.696 594.37 208.544V206.944C593.431 208.693 592.066 210.059 590.274 211.04C588.524 212.021 586.519 212.512 584.258 212.512C581.57 212.512 579.159 211.829 577.026 210.464C574.935 209.099 573.292 207.179 572.098 204.704C570.946 202.187 570.37 199.307 570.37 196.064C570.37 192.821 570.946 189.984 572.098 187.552C573.292 185.12 574.935 183.243 577.026 181.92C579.116 180.597 581.527 179.936 584.258 179.936C586.519 179.936 588.524 180.405 590.274 181.344C592.023 182.283 593.367 183.605 594.306 185.312V170.144C594.306 169.077 594.647 168.224 595.33 167.584C596.055 166.901 597.015 166.56 598.21 166.56ZM586.37 206.304C588.93 206.304 590.892 205.429 592.258 203.68C593.666 201.931 594.37 199.435 594.37 196.192C594.37 192.949 593.666 190.475 592.258 188.768C590.892 187.019 588.951 186.144 586.434 186.144C583.874 186.144 581.89 186.997 580.482 188.704C579.074 190.411 578.37 192.864 578.37 196.064C578.37 199.307 579.074 201.824 580.482 203.616C581.89 205.408 583.852 206.304 586.37 206.304Z" fill="white"/>
<path d="M102.952 211.232L102.588 211.575L102.593 211.581L102.598 211.586L102.952 211.232ZM102.952 167.712L102.598 167.358L102.598 167.358L102.952 167.712ZM108.968 167.712L108.604 168.055L108.614 168.066L108.625 168.076L108.968 167.712ZM108.968 211.232L108.614 210.878L108.609 210.883L108.604 210.889L108.968 211.232ZM105.96 211.884C104.835 211.884 103.966 211.539 103.306 210.878L102.598 211.586C103.474 212.461 104.61 212.884 105.96 212.884V211.884ZM103.316 210.889C102.693 210.229 102.364 209.357 102.364 208.224H101.364C101.364 209.566 101.761 210.699 102.588 211.575L103.316 210.889ZM102.364 208.224V170.656H101.364V208.224H102.364ZM102.364 170.656C102.364 169.522 102.693 168.678 103.306 168.066L102.598 167.358C101.761 168.196 101.364 169.315 101.364 170.656H102.364ZM103.306 168.066C103.966 167.405 104.835 167.06 105.96 167.06V166.06C104.61 166.06 103.474 166.483 102.598 167.358L103.306 168.066ZM105.96 167.06C107.134 167.06 107.993 167.408 108.604 168.055L109.332 167.369C108.492 166.48 107.346 166.06 105.96 166.06V167.06ZM108.625 168.076C109.275 168.69 109.62 169.531 109.62 170.656H110.62C110.62 169.307 110.197 168.185 109.311 167.348L108.625 168.076ZM109.62 170.656V208.224H110.62V170.656H109.62ZM109.62 208.224C109.62 209.349 109.275 210.218 108.614 210.878L109.322 211.586C110.197 210.71 110.62 209.574 110.62 208.224H109.62ZM108.604 210.889C107.993 211.536 107.134 211.884 105.96 211.884V212.884C107.346 212.884 108.492 212.464 109.332 211.575L108.604 210.889ZM164.152 183.008L163.776 183.337L163.783 183.346L164.152 183.008ZM165.752 211.424L166.083 211.799L166.084 211.798L165.752 211.424ZM159.992 211.424L159.649 211.788L159.66 211.798L159.672 211.808L159.992 211.424ZM157.624 187.808L157.232 188.118L157.239 188.127L157.247 188.136L157.624 187.808ZM148.856 188.448L149.232 188.778L149.236 188.772L148.856 188.448ZM145.848 211.424L146.179 211.799L146.18 211.798L145.848 211.424ZM140.152 211.424L139.82 211.798L139.826 211.803L139.832 211.808L140.152 211.424ZM137.72 187.808L137.328 188.118L137.335 188.127L137.343 188.136L137.72 187.808ZM128.952 188.448L128.572 188.124L128.571 188.125L128.952 188.448ZM126.008 211.424L126.328 211.808L126.334 211.803L126.34 211.798L126.008 211.424ZM120.248 211.424L119.905 211.788L119.916 211.798L119.928 211.808L120.248 211.424ZM120.312 181.024L119.992 180.64L119.992 180.64L120.312 181.024ZM125.88 181.024L125.538 181.389L125.55 181.4L125.562 181.41L125.88 181.024ZM126.968 185.184H126.468V187.057L127.401 185.433L126.968 185.184ZM130.872 181.28L130.635 180.84L130.63 180.842L130.872 181.28ZM145.976 185.824L145.512 186.011L145.916 187.016L146.419 186.056L145.976 185.824ZM150.136 181.536L150.387 181.968L150.387 181.968L150.136 181.536ZM156.344 180.436C159.653 180.436 162.102 181.424 163.776 183.337L164.528 182.679C162.618 180.496 159.862 179.436 156.344 179.436V180.436ZM163.783 183.346C165.493 185.214 166.404 188.325 166.404 192.8H167.404C167.404 188.23 166.481 184.813 164.521 182.67L163.783 183.346ZM166.404 192.8V208.544H167.404V192.8H166.404ZM166.404 208.544C166.404 209.67 166.059 210.482 165.42 211.05L166.084 211.798C166.981 211.001 167.404 209.892 167.404 208.544H166.404ZM165.421 211.049C164.807 211.591 163.975 211.884 162.872 211.884V212.884C164.159 212.884 165.246 212.537 166.083 211.799L165.421 211.049ZM162.872 211.884C161.818 211.884 160.977 211.594 160.312 211.04L159.672 211.808C160.543 212.534 161.622 212.884 162.872 212.884V211.884ZM160.335 211.06C159.733 210.494 159.404 209.679 159.404 208.544H158.404C158.404 209.884 158.8 210.989 159.649 211.788L160.335 211.06ZM159.404 208.544V192.8H158.404V208.544H159.404ZM159.404 192.8C159.404 190.42 158.976 188.601 158.001 187.48L157.247 188.136C157.978 188.977 158.404 190.487 158.404 192.8H159.404ZM158.016 187.498C157.083 186.319 155.657 185.772 153.848 185.772V186.772C155.453 186.772 156.544 187.249 157.232 188.118L158.016 187.498ZM153.848 185.772C151.627 185.772 149.818 186.55 148.476 188.124L149.236 188.772C150.369 187.445 151.888 186.772 153.848 186.772V185.772ZM148.48 188.118C147.14 189.643 146.5 191.715 146.5 194.272H147.5C147.5 191.879 148.097 190.069 149.232 188.778L148.48 188.118ZM146.5 194.272V208.544H147.5V194.272H146.5ZM146.5 208.544C146.5 209.67 146.155 210.482 145.516 211.05L146.18 211.798C147.077 211.001 147.5 209.892 147.5 208.544H146.5ZM145.517 211.049C144.9 211.594 144.087 211.884 143.032 211.884V212.884C144.281 212.884 145.345 212.534 146.179 211.799L145.517 211.049ZM143.032 211.884C141.978 211.884 141.137 211.594 140.472 211.04L139.832 211.808C140.703 212.534 141.782 212.884 143.032 212.884V211.884ZM140.484 211.05C139.845 210.482 139.5 209.67 139.5 208.544H138.5C138.5 209.892 138.923 211.001 139.82 211.798L140.484 211.05ZM139.5 208.544V192.8H138.5V208.544H139.5ZM139.5 192.8C139.5 190.42 139.072 188.601 138.097 187.48L137.343 188.136C138.074 188.977 138.5 190.487 138.5 192.8H139.5ZM138.112 187.498C137.179 186.319 135.753 185.772 133.944 185.772V186.772C135.549 186.772 136.64 187.249 137.328 188.118L138.112 187.498ZM133.944 185.772C131.723 185.772 129.914 186.55 128.572 188.124L129.332 188.772C130.465 187.445 131.984 186.772 133.944 186.772V185.772ZM128.571 188.125C127.277 189.65 126.66 191.719 126.66 194.272H127.66C127.66 191.875 128.238 190.062 129.333 188.771L128.571 188.125ZM126.66 194.272V208.544H127.66V194.272H126.66ZM126.66 208.544C126.66 209.67 126.315 210.482 125.676 211.05L126.34 211.798C127.237 211.001 127.66 209.892 127.66 208.544H126.66ZM125.688 211.04C125.023 211.594 124.182 211.884 123.128 211.884V212.884C124.378 212.884 125.457 212.534 126.328 211.808L125.688 211.04ZM123.128 211.884C122.074 211.884 121.233 211.594 120.568 211.04L119.928 211.808C120.799 212.534 121.878 212.884 123.128 212.884V211.884ZM120.591 211.06C119.989 210.494 119.66 209.679 119.66 208.544H118.66C118.66 209.884 119.056 210.989 119.905 211.788L120.591 211.06ZM119.66 208.544V183.776H118.66V208.544H119.66ZM119.66 183.776C119.66 182.698 120.001 181.934 120.632 181.408L119.992 180.64C119.087 181.394 118.66 182.465 118.66 183.776H119.66ZM120.632 181.408C121.297 180.854 122.138 180.564 123.192 180.564V179.564C121.942 179.564 120.863 179.914 119.992 180.64L120.632 181.408ZM123.192 180.564C124.199 180.564 124.965 180.851 125.538 181.389L126.222 180.659C125.43 179.917 124.403 179.564 123.192 179.564V180.564ZM125.562 181.41C126.146 181.891 126.468 182.608 126.468 183.648H127.468C127.468 182.384 127.064 181.352 126.198 180.638L125.562 181.41ZM126.468 183.648V185.184H127.468V183.648H126.468ZM127.401 185.433C128.34 183.801 129.577 182.567 131.114 181.718L130.63 180.842C128.924 181.785 127.558 183.154 126.535 184.935L127.401 185.433ZM131.109 181.72C132.691 180.868 134.507 180.436 136.568 180.436V179.436C134.363 179.436 132.381 179.9 130.635 180.84L131.109 181.72ZM136.568 180.436C138.846 180.436 140.705 180.912 142.175 181.832C143.641 182.749 144.756 184.131 145.512 186.011L146.44 185.637C145.617 183.591 144.375 182.029 142.705 180.984C141.039 179.941 138.984 179.436 136.568 179.436V180.436ZM146.419 186.056C147.312 184.352 148.63 182.99 150.387 181.968L149.885 181.104C147.973 182.215 146.518 183.712 145.533 185.592L146.419 186.056ZM150.387 181.968C152.139 180.95 154.12 180.436 156.344 180.436V179.436C153.96 179.436 151.802 179.989 149.885 181.104L150.387 181.968ZM198.267 183.2L197.906 183.546L197.913 183.554L198.267 183.2ZM200.443 211.36L200.785 211.725L200.791 211.719L200.797 211.714L200.443 211.36ZM194.875 211.296L194.521 211.65L194.527 211.655L194.532 211.66L194.875 211.296ZM193.851 207.2H194.351L193.393 207L193.851 207.2ZM190.395 211.104L190.139 210.674L190.134 210.677L190.395 211.104ZM179.323 211.232L179.099 211.679L179.099 211.679L179.323 211.232ZM175.291 207.712L174.873 207.987L174.873 207.987L175.291 207.712ZM175.547 197.28L175.176 196.945L175.17 196.952L175.547 197.28ZM181.307 194.4L181.197 193.912L181.197 193.912L181.307 194.4ZM193.851 193.504V194.004H194.351V193.504H193.851ZM192.507 187.488L192.138 187.825L192.145 187.833L192.507 187.488ZM184.379 186.592L184.508 187.075L184.515 187.073L184.523 187.071L184.379 186.592ZM179.835 188.128L179.653 187.662L179.632 187.671L179.611 187.681L179.835 188.128ZM175.483 188.128L175.101 188.451L175.108 188.459L175.116 188.467L175.483 188.128ZM175.291 184.096L174.88 183.811L174.875 183.819L175.291 184.096ZM177.147 182.56L176.908 182.121L176.906 182.122L177.147 182.56ZM182.459 180.64L182.349 180.152L182.347 180.153L182.459 180.64ZM191.803 204.64L191.439 204.297L191.439 204.298L191.803 204.64ZM193.851 197.728H194.351V197.228H193.851V197.728ZM186.043 198.112L186.123 198.606L186.123 198.606L186.043 198.112ZM182.651 199.456L182.993 199.821L182.993 199.821L182.651 199.456ZM183.035 205.472L182.69 205.834L182.698 205.842L182.707 205.849L183.035 205.472ZM188.603 180.436C192.88 180.436 195.945 181.505 197.906 183.546L198.628 182.854C196.407 180.543 193.03 179.436 188.603 179.436V180.436ZM197.913 183.554C199.917 185.558 200.967 188.669 200.967 192.992H201.967C201.967 188.525 200.883 185.109 198.621 182.846L197.913 183.554ZM200.967 192.992V208.608H201.967V192.992H200.967ZM200.967 208.608C200.967 209.655 200.661 210.435 200.089 211.006L200.797 211.714C201.591 210.919 201.967 209.865 201.967 208.608H200.967ZM200.101 210.995C199.535 211.526 198.731 211.82 197.627 211.82V212.82C198.912 212.82 199.986 212.474 200.785 211.725L200.101 210.995ZM197.627 211.82C196.629 211.82 195.839 211.517 195.218 210.932L194.532 211.66C195.361 212.44 196.406 212.82 197.627 212.82V211.82ZM195.229 210.942C194.654 210.368 194.351 209.606 194.351 208.608H193.351C193.351 209.829 193.731 210.859 194.521 211.65L195.229 210.942ZM194.351 208.608V207.2H193.351V208.608H194.351ZM193.393 207C192.71 208.567 191.629 209.788 190.139 210.674L190.651 211.534C192.318 210.542 193.542 209.161 194.309 207.4L193.393 207ZM190.134 210.677C188.687 211.562 186.988 212.012 185.019 212.012V213.012C187.146 213.012 189.031 212.524 190.656 211.531L190.134 210.677ZM185.019 212.012C182.998 212.012 181.177 211.6 179.547 210.785L179.099 211.679C180.882 212.57 182.858 213.012 185.019 213.012V212.012ZM179.547 210.785C177.913 209.968 176.638 208.852 175.709 207.437L174.873 207.987C175.906 209.559 177.319 210.789 179.099 211.679L179.547 210.785ZM175.709 207.437C174.783 206.028 174.319 204.46 174.319 202.72H173.319C173.319 204.649 173.837 206.409 174.873 207.987L175.709 207.437ZM174.319 202.72C174.319 200.498 174.873 198.815 175.924 197.608L175.17 196.952C173.917 198.391 173.319 200.334 173.319 202.72H174.319ZM175.918 197.615C177.016 196.399 178.823 195.473 181.417 194.888L181.197 193.912C178.5 194.521 176.467 195.515 175.176 196.945L175.918 197.615ZM181.417 194.888C184.01 194.302 187.615 194.004 192.251 194.004V193.004C187.586 193.004 183.895 193.303 181.197 193.912L181.417 194.888ZM192.251 194.004H193.851V193.004H192.251V194.004ZM194.351 193.504V192.032H193.351V193.504H194.351ZM194.351 192.032C194.351 189.888 193.894 188.217 192.869 187.143L192.145 187.833C192.912 188.636 193.351 189.995 193.351 192.032H194.351ZM192.876 187.151C191.846 186.023 190.229 185.516 188.155 185.516V186.516C190.091 186.516 191.376 186.991 192.138 187.825L192.876 187.151ZM188.155 185.516C186.865 185.516 185.558 185.716 184.235 186.113L184.523 187.071C185.76 186.7 186.97 186.516 188.155 186.516V185.516ZM184.25 186.109C182.947 186.457 181.413 186.975 179.653 187.662L180.017 188.594C181.755 187.915 183.251 187.41 184.508 187.075L184.25 186.109ZM179.611 187.681C179.069 187.952 178.61 188.15 178.233 188.279C177.85 188.41 177.579 188.46 177.403 188.46V189.46C177.739 189.46 178.13 189.371 178.557 189.225C178.99 189.077 179.492 188.859 180.059 188.575L179.611 187.681ZM177.403 188.46C176.772 188.46 176.266 188.239 175.85 187.789L175.116 188.467C175.724 189.126 176.498 189.46 177.403 189.46V188.46ZM175.865 187.805C175.488 187.36 175.279 186.758 175.279 185.952H174.279C174.279 186.938 174.539 187.786 175.101 188.451L175.865 187.805ZM175.279 185.952C175.279 185.307 175.43 184.789 175.707 184.373L174.875 183.819C174.47 184.427 174.279 185.146 174.279 185.952H175.279ZM175.702 184.381C176.027 183.911 176.575 183.446 177.388 182.998L176.906 182.122C176.013 182.613 175.323 183.171 174.88 183.811L175.702 184.381ZM177.386 182.999C178.831 182.215 180.557 181.589 182.571 181.127L182.347 180.153C180.265 180.63 178.45 181.284 176.908 182.121L177.386 182.999ZM182.569 181.128C184.626 180.666 186.637 180.436 188.603 180.436V179.436C186.558 179.436 184.474 179.675 182.349 180.152L182.569 181.128ZM186.619 207.252C188.874 207.252 190.74 206.502 192.167 204.982L191.439 204.298C190.221 205.594 188.63 206.252 186.619 206.252V207.252ZM192.167 204.983C193.632 203.427 194.351 201.442 194.351 199.072H193.351C193.351 201.225 192.705 202.952 191.439 204.297L192.167 204.983ZM194.351 199.072V197.728H193.351V199.072H194.351ZM193.851 197.228H192.699V198.228H193.851V197.228ZM192.699 197.228C189.831 197.228 187.581 197.356 185.963 197.618L186.123 198.606C187.662 198.356 189.85 198.228 192.699 198.228V197.228ZM185.963 197.618C184.348 197.88 183.099 198.35 182.309 199.091L182.993 199.821C183.568 199.282 184.581 198.856 186.123 198.606L185.963 197.618ZM182.309 199.091C181.507 199.843 181.127 200.86 181.127 202.08H182.127C182.127 201.081 182.43 200.349 182.993 199.821L182.309 199.091ZM181.127 202.08C181.127 203.574 181.647 204.838 182.69 205.834L183.38 205.11C182.546 204.314 182.127 203.317 182.127 202.08H181.127ZM182.707 205.849C183.787 206.789 185.101 207.252 186.619 207.252V206.252C185.321 206.252 184.246 205.862 183.363 205.095L182.707 205.849ZM238.974 181.088L239.316 180.724L239.316 180.724L238.974 181.088ZM235.966 220.256L236.304 220.624L236.304 220.624L235.966 220.256ZM212.222 221.408L211.966 221.838L211.977 221.844L212.222 221.408ZM210.494 215.776L210.112 215.453L210.104 215.462L210.097 215.471L210.494 215.776ZM213.694 215.2L213.873 214.733L213.857 214.727L213.841 214.722L213.694 215.2ZM215.422 215.904L215.225 216.364L215.229 216.366L215.422 215.904ZM219.518 217.376L219.38 217.857L219.385 217.858L219.518 217.376ZM232.126 205.6H232.626L231.685 205.364L232.126 205.6ZM228.03 209.696L228.262 210.139L228.27 210.135L228.03 209.696ZM214.59 209.184L214.322 209.607L214.332 209.613L214.59 209.184ZM209.661 203.68L210.107 203.453L209.661 203.68ZM209.598 187.424L209.15 187.2L209.149 187.204L209.598 187.424ZM214.59 181.92L214.847 182.349L214.853 182.345L214.59 181.92ZM228.03 181.408L227.789 181.847L227.797 181.851L228.03 181.408ZM232.126 185.44L231.685 185.676L232.626 185.44H232.126ZM233.214 181.088L232.871 180.724L232.871 180.724L233.214 181.088ZM229.95 202.4L229.573 202.071L229.568 202.077L229.95 202.4ZM229.95 188.64L229.568 188.963L229.573 188.969L229.95 188.64ZM218.046 188.64L218.422 188.969L218.422 188.969L218.046 188.64ZM218.046 202.4L218.422 202.071L218.422 202.071L218.046 202.4ZM236.094 180.564C237.188 180.564 238.016 180.874 238.631 181.452L239.316 180.724C238.48 179.937 237.389 179.564 236.094 179.564V180.564ZM238.631 181.452C239.24 182.025 239.562 182.802 239.562 183.84H240.562C240.562 182.574 240.158 181.516 239.316 180.724L238.631 181.452ZM239.562 183.84V209.12H240.562V183.84H239.562ZM239.562 209.12C239.562 213.934 238.224 217.494 235.627 219.888L236.304 220.624C239.168 217.984 240.562 214.119 240.562 209.12H239.562ZM235.627 219.888C233.022 222.29 229.132 223.532 223.87 223.532V224.532C229.274 224.532 233.448 223.257 236.304 220.624L235.627 219.888ZM223.87 223.532C219.279 223.532 215.487 222.669 212.466 220.972L211.977 221.844C215.185 223.646 219.158 224.532 223.87 224.532V223.532ZM212.477 220.978C210.984 220.091 210.354 219.097 210.354 218.016H209.354C209.354 219.58 210.301 220.848 211.966 221.838L212.477 220.978ZM210.354 218.016C210.354 217.15 210.55 216.522 210.89 216.081L210.097 215.471C209.584 216.139 209.354 217.004 209.354 218.016H210.354ZM210.875 216.099C211.25 215.656 211.708 215.444 212.286 215.444V214.444C211.413 214.444 210.676 214.786 210.112 215.453L210.875 216.099ZM212.286 215.444C212.601 215.444 213.018 215.515 213.546 215.678L213.841 214.722C213.26 214.543 212.738 214.444 212.286 214.444V215.444ZM213.514 215.667C214.062 215.878 214.632 216.11 215.225 216.364L215.618 215.444C215.016 215.186 214.434 214.949 213.873 214.733L213.514 215.667ZM215.229 216.366C216.778 217.011 218.162 217.509 219.38 217.857L219.655 216.895C218.484 216.561 217.137 216.077 215.614 215.442L215.229 216.366ZM219.385 217.858C220.674 218.214 222.128 218.388 223.742 218.388V217.388C222.198 217.388 220.836 217.221 219.65 216.894L219.385 217.858ZM223.742 218.388C226.61 218.388 228.854 217.687 230.379 216.198C231.906 214.706 232.626 212.507 232.626 209.696H231.626C231.626 212.347 230.948 214.243 229.68 215.482C228.41 216.723 226.462 217.388 223.742 217.388V218.388ZM232.626 209.696V205.6H231.626V209.696H232.626ZM231.685 205.364C230.793 207.025 229.499 208.321 227.789 209.257L228.27 210.135C230.144 209.108 231.58 207.674 232.566 205.836L231.685 205.364ZM227.797 209.253C226.086 210.149 224.12 210.604 221.885 210.604V211.604C224.259 211.604 226.389 211.12 228.262 210.139L227.797 209.253ZM221.885 210.604C219.236 210.604 216.895 209.984 214.847 208.755L214.332 209.613C216.551 210.944 219.073 211.604 221.885 211.604V210.604ZM214.857 208.761C212.847 207.49 211.264 205.725 210.107 203.453L209.216 203.907C210.449 206.328 212.151 208.233 214.322 209.607L214.857 208.761ZM210.107 203.453C208.954 201.188 208.37 198.558 208.37 195.552H207.37C207.37 198.69 207.98 201.479 209.216 203.907L210.107 203.453ZM208.37 195.552C208.37 192.543 208.933 189.911 210.046 187.644L209.149 187.204C207.958 189.63 207.37 192.417 207.37 195.552H208.37ZM210.045 187.648C211.2 185.337 212.801 183.576 214.847 182.349L214.332 181.491C212.111 182.824 210.384 184.733 209.15 187.2L210.045 187.648ZM214.853 182.345C216.9 181.076 219.239 180.436 221.885 180.436V179.436C219.07 179.436 216.545 180.119 214.326 181.495L214.853 182.345ZM221.885 180.436C224.116 180.436 226.08 180.91 227.789 181.847L228.27 180.969C226.395 179.943 224.263 179.436 221.885 179.436V180.436ZM227.797 181.851C229.503 182.744 230.795 184.017 231.685 185.676L232.566 185.204C231.579 183.364 230.14 181.949 228.262 180.965L227.797 181.851ZM232.626 185.44V183.776H231.626V185.44H232.626ZM232.626 183.776C232.626 182.787 232.943 182.029 233.556 181.452L232.871 180.724C232.033 181.512 231.626 182.546 231.626 183.776H232.626ZM233.556 181.452C234.171 180.874 234.999 180.564 236.094 180.564V179.564C234.798 179.564 233.707 179.937 232.871 180.724L233.556 181.452ZM223.998 205.396C226.676 205.396 228.811 204.519 230.331 202.723L229.568 202.077C228.272 203.609 226.439 204.396 223.998 204.396V205.396ZM230.326 202.729C231.879 200.948 232.626 198.535 232.626 195.552H231.626C231.626 198.371 230.922 200.524 229.573 202.071L230.326 202.729ZM232.626 195.552C232.626 192.528 231.88 190.093 230.326 188.311L229.573 188.969C230.921 190.515 231.626 192.688 231.626 195.552H232.626ZM230.331 188.317C228.811 186.521 226.676 185.644 223.998 185.644V186.644C226.439 186.644 228.272 187.431 229.568 188.963L230.331 188.317ZM223.998 185.644C221.358 185.644 219.228 186.523 217.669 188.311L218.422 188.969C219.764 187.429 221.602 186.644 223.998 186.644V185.644ZM217.669 188.311C216.115 190.093 215.37 192.528 215.37 195.552H216.37C216.37 192.688 217.074 190.515 218.422 188.969L217.669 188.311ZM215.37 195.552C215.37 198.535 216.116 200.948 217.669 202.729L218.422 202.071C217.073 200.524 216.37 198.371 216.37 195.552H215.37ZM217.669 202.729C219.228 204.517 221.358 205.396 223.998 205.396V204.396C221.602 204.396 219.764 203.611 218.422 202.071L217.669 202.729ZM274.844 204.256L274.447 204.561L274.454 204.57L274.462 204.579L274.844 204.256ZM273.18 209.824L273.423 210.26L273.426 210.259L273.18 209.824ZM268.252 211.808L268.375 212.293L268.386 212.29L268.252 211.808ZM251.036 208.16L250.685 208.516L251.036 208.16ZM253.916 181.984L253.664 181.552L253.661 181.554L253.916 181.984ZM269.212 181.792L269.466 181.362L269.466 181.362L269.212 181.792ZM274.076 187.04L273.63 187.267L273.63 187.267L274.076 187.04ZM254.492 197.792V197.292H253.946L253.993 197.835L254.492 197.792ZM256.988 204.32L256.634 204.674L256.639 204.679L256.988 204.32ZM266.716 205.856L266.563 205.38L266.557 205.382L266.716 205.856ZM270.3 204.448L270.505 204.904L270.52 204.897L270.535 204.889L270.3 204.448ZM256.796 187.616L256.436 187.268L256.431 187.274L256.796 187.616ZM254.492 193.504L253.994 193.454L253.939 194.004H254.492V193.504ZM268.956 193.504V194.004H269.472L269.455 193.488L268.956 193.504ZM267.036 187.616L266.659 187.945L266.664 187.951L267.036 187.616ZM273.116 203.924C273.692 203.924 274.119 204.134 274.447 204.561L275.24 203.951C274.715 203.268 273.989 202.924 273.116 202.924V203.924ZM274.462 204.579C274.835 205.02 275.048 205.64 275.048 206.496H276.048C276.048 205.474 275.791 204.602 275.225 203.933L274.462 204.579ZM275.048 206.496C275.048 207.574 274.421 208.545 272.933 209.389L273.426 210.259C275.096 209.311 276.048 208.063 276.048 206.496H275.048ZM272.936 209.388C271.524 210.176 269.919 210.824 268.117 211.326L268.386 212.29C270.253 211.768 271.934 211.093 273.423 210.26L272.936 209.388ZM268.128 211.324C266.328 211.784 264.62 212.012 263.003 212.012V213.012C264.715 213.012 266.506 212.771 268.375 212.292L268.128 211.324ZM263.003 212.012C258.07 212.012 254.217 210.594 251.386 207.804L250.685 208.516C253.742 211.529 257.868 213.012 263.003 213.012V212.012ZM251.386 207.804C248.558 205.016 247.12 201.188 247.12 196.256H246.12C246.12 201.393 247.625 205.501 250.685 208.516L251.386 207.804ZM247.12 196.256C247.12 193.124 247.745 190.367 248.984 187.974L248.095 187.514C246.774 190.07 246.12 192.988 246.12 196.256H247.12ZM248.984 187.974C250.222 185.579 251.95 183.73 254.17 182.414L253.661 181.554C251.273 182.969 249.417 184.96 248.095 187.514L248.984 187.974ZM254.167 182.416C256.431 181.099 258.988 180.436 261.852 180.436V179.436C258.827 179.436 256.093 180.138 253.664 181.552L254.167 182.416ZM261.852 180.436C264.592 180.436 266.955 181.037 268.957 182.222L269.466 181.362C267.287 180.072 264.743 179.436 261.852 179.436V180.436ZM268.957 182.222C270.962 183.409 272.519 185.086 273.63 187.267L274.521 186.813C273.328 184.471 271.642 182.65 269.466 181.362L268.957 182.222ZM273.63 187.267C274.739 189.445 275.304 192.03 275.304 195.04H276.304C276.304 191.906 275.716 189.158 274.521 186.813L273.63 187.267ZM275.304 195.04C275.304 195.894 275.113 196.442 274.821 196.773C274.539 197.092 274.088 197.292 273.372 197.292V198.292C274.276 198.292 275.042 198.033 275.57 197.435C276.088 196.849 276.304 196.02 276.304 195.04H275.304ZM273.372 197.292H254.492V198.292H273.372V197.292ZM253.993 197.835C254.255 200.842 255.111 203.15 256.634 204.674L257.341 203.966C256.048 202.674 255.24 200.63 254.99 197.749L253.993 197.835ZM256.639 204.679C258.171 206.164 260.363 206.868 263.132 206.868V205.868C260.524 205.868 258.62 205.207 257.336 203.961L256.639 204.679ZM263.132 206.868C264.537 206.868 265.787 206.692 266.874 206.33L266.557 205.382C265.596 205.702 264.457 205.868 263.132 205.868V206.868ZM266.868 206.332C267.957 205.984 269.17 205.507 270.505 204.904L270.094 203.992C268.784 204.584 267.607 205.046 266.563 205.38L266.868 206.332ZM270.535 204.889C271.162 204.554 271.695 204.31 272.134 204.15C272.581 203.988 272.901 203.924 273.116 203.924V202.924C272.732 202.924 272.285 203.031 271.793 203.21C271.294 203.392 270.717 203.659 270.064 204.007L270.535 204.889ZM262.044 185.068C259.754 185.068 257.867 185.791 256.436 187.268L257.155 187.964C258.369 186.71 259.981 186.068 262.044 186.068V185.068ZM256.431 187.274C255.052 188.745 254.257 190.825 253.994 193.454L254.989 193.554C255.238 191.063 255.979 189.218 257.16 187.958L256.431 187.274ZM254.492 194.004H268.956V193.004H254.492V194.004ZM269.455 193.488C269.368 190.82 268.71 188.724 267.407 187.281L266.664 187.951C267.75 189.153 268.373 190.983 268.456 193.52L269.455 193.488ZM267.412 187.287C266.105 185.794 264.293 185.068 262.044 185.068V186.068C264.061 186.068 265.576 186.708 266.659 187.945L267.412 187.287ZM337.419 167.712L337.045 168.044L337.055 168.055L337.065 168.066L337.419 167.712ZM337.419 211.232L337.782 211.575L337.782 211.575L337.419 211.232ZM331.467 210.912L331.869 210.615L331.863 210.607L331.467 210.912ZM308.107 180.512L308.503 180.207L307.607 179.041V180.512H308.107ZM307.083 211.232L307.456 211.564L307.456 211.564L307.083 211.232ZM301.451 211.232L301.824 210.9L301.824 210.9L301.451 211.232ZM301.515 167.712L301.868 168.066L301.873 168.061L301.878 168.055L301.515 167.712ZM307.467 168.032L307.064 168.329L307.07 168.337L307.467 168.032ZM330.763 198.304L330.366 198.609L331.263 199.774V198.304H330.763ZM331.787 167.712L331.423 167.369L331.422 167.369L331.787 167.712ZM334.603 167.06C335.68 167.06 336.473 167.401 337.045 168.044L337.792 167.38C336.999 166.487 335.914 166.06 334.603 166.06V167.06ZM337.065 168.066C337.678 168.678 338.007 169.522 338.007 170.656H339.007C339.007 169.315 338.61 168.196 337.772 167.358L337.065 168.066ZM338.007 170.656V208.224H339.007V170.656H338.007ZM338.007 208.224C338.007 209.357 337.678 210.229 337.055 210.889L337.782 211.575C338.61 210.699 339.007 209.566 339.007 208.224H338.007ZM337.055 210.889C336.433 211.547 335.631 211.884 334.603 211.884V212.884C335.878 212.884 336.953 212.453 337.782 211.575L337.055 210.889ZM334.603 211.884C333.374 211.884 332.487 211.452 331.869 210.615L331.064 211.209C331.896 212.335 333.1 212.884 334.603 212.884V211.884ZM331.863 210.607L308.503 180.207L307.71 180.817L331.07 211.217L331.863 210.607ZM307.607 180.512V208.224H308.607V180.512H307.607ZM307.607 208.224C307.607 209.365 307.294 210.241 306.709 210.9L307.456 211.564C308.236 210.687 308.607 209.558 308.607 208.224H307.607ZM306.709 210.9C306.137 211.543 305.344 211.884 304.267 211.884V212.884C305.578 212.884 306.663 212.457 307.456 211.564L306.709 210.9ZM304.267 211.884C303.189 211.884 302.396 211.543 301.824 210.9L301.077 211.564C301.87 212.457 302.955 212.884 304.267 212.884V211.884ZM301.824 210.9C301.239 210.241 300.927 209.365 300.927 208.224H299.927C299.927 209.558 300.297 210.687 301.077 211.564L301.824 210.9ZM300.927 208.224V170.656H299.927V208.224H300.927ZM300.927 170.656C300.927 169.522 301.255 168.678 301.868 168.066L301.161 167.358C300.323 168.196 299.927 169.315 299.927 170.656H300.927ZM301.878 168.055C302.496 167.401 303.318 167.06 304.395 167.06V166.06C303.082 166.06 301.984 166.487 301.151 167.369L301.878 168.055ZM304.395 167.06C305.574 167.06 306.442 167.487 307.064 168.329L307.869 167.735C307.04 166.614 305.86 166.06 304.395 166.06V167.06ZM307.07 168.337L330.366 198.609L331.159 197.999L307.863 167.727L307.07 168.337ZM331.263 198.304V170.656H330.263V198.304H331.263ZM331.263 170.656C331.263 169.514 331.575 168.666 332.151 168.055L331.422 167.369C330.633 168.209 330.263 169.324 330.263 170.656H331.263ZM332.15 168.055C332.772 167.397 333.574 167.06 334.603 167.06V166.06C333.327 166.06 332.252 166.491 331.423 167.369L332.15 168.055ZM353.359 210.528L353.117 210.965L353.12 210.967L353.359 210.528ZM347.791 204.832L348.232 204.596L348.232 204.596L347.791 204.832ZM347.791 187.616L348.23 187.855L348.232 187.852L347.791 187.616ZM353.359 181.92L353.12 181.481L353.117 181.483L353.359 181.92ZM370.191 181.92L369.949 182.357L369.952 182.359L370.191 181.92ZM375.759 187.616L375.315 187.846L375.32 187.855L375.759 187.616ZM375.759 204.832L375.318 204.596L375.315 204.602L375.759 204.832ZM370.191 210.528L369.952 210.089L369.949 210.091L370.191 210.528ZM367.695 188.704L367.301 189.012L367.305 189.016L367.695 188.704ZM355.855 188.704L355.465 188.39L355.465 188.392L355.855 188.704ZM361.807 212.012C358.677 212.012 355.946 211.366 353.598 210.089L353.12 210.967C355.636 212.336 358.537 213.012 361.807 213.012V212.012ZM353.601 210.091C351.299 208.816 349.511 206.988 348.232 204.596L347.35 205.068C348.717 207.625 350.641 209.595 353.117 210.965L353.601 210.091ZM348.232 204.596C346.954 202.206 346.307 199.409 346.307 196.192H345.307C345.307 199.545 345.982 202.509 347.35 205.068L348.232 204.596ZM346.307 196.192C346.307 192.975 346.954 190.201 348.23 187.855L347.352 187.377C345.982 189.895 345.307 192.839 345.307 196.192H346.307ZM348.232 187.852C349.511 185.46 351.299 183.632 353.601 182.357L353.117 181.483C350.641 182.853 348.717 184.823 347.35 187.38L348.232 187.852ZM353.598 182.359C355.946 181.082 358.677 180.436 361.807 180.436V179.436C358.537 179.436 355.636 180.112 353.12 181.481L353.598 182.359ZM361.807 180.436C364.937 180.436 367.645 181.082 369.949 182.357L370.433 181.483C367.958 180.112 365.077 179.436 361.807 179.436V180.436ZM369.952 182.359C372.296 183.634 374.081 185.459 375.315 187.846L376.203 187.386C374.877 184.823 372.95 182.852 370.43 181.481L369.952 182.359ZM375.32 187.855C376.596 190.201 377.243 192.975 377.243 196.192H378.243C378.243 192.839 377.568 189.895 376.198 187.377L375.32 187.855ZM377.243 196.192C377.243 199.409 376.596 202.206 375.318 204.596L376.2 205.068C377.568 202.509 378.243 199.545 378.243 196.192H377.243ZM375.315 204.602C374.081 206.989 372.296 208.814 369.952 210.089L370.43 210.967C372.95 209.596 374.877 207.625 376.203 205.062L375.315 204.602ZM369.949 210.091C367.645 211.366 364.937 212.012 361.807 212.012V213.012C365.077 213.012 367.958 212.336 370.433 210.965L369.949 210.091ZM361.743 206.804C364.465 206.804 366.607 205.905 368.085 204.056L367.305 203.432C366.053 204.997 364.226 205.804 361.743 205.804V206.804ZM368.085 204.056C369.55 202.225 370.243 199.577 370.243 196.192H369.243C369.243 199.463 368.57 201.849 367.305 203.432L368.085 204.056ZM370.243 196.192C370.243 192.848 369.55 190.222 368.085 188.392L367.305 189.016C368.571 190.599 369.243 192.966 369.243 196.192H370.243ZM368.089 188.396C366.614 186.506 364.494 185.58 361.807 185.58V186.58C364.24 186.58 366.046 187.403 367.301 189.012L368.089 188.396ZM361.807 185.58C359.12 185.58 356.982 186.506 355.465 188.39L356.245 189.018C357.544 187.404 359.374 186.58 361.807 186.58V185.58ZM355.465 188.392C354 190.222 353.307 192.848 353.307 196.192H354.307C354.307 192.966 354.979 190.599 356.245 189.016L355.465 188.392ZM353.307 196.192C353.307 199.577 354 202.225 355.465 204.056L356.245 203.432C354.98 201.849 354.307 199.463 354.307 196.192H353.307ZM355.465 204.056C356.942 205.903 359.06 206.804 361.743 206.804V205.804C359.306 205.804 357.499 204.999 356.245 203.432L355.465 204.056ZM400.416 206.432L400.379 206.931L400.386 206.931L400.416 206.432ZM402.336 211.68L402.603 212.103L402.608 212.099L402.336 211.68ZM398.816 212.32L398.779 212.819L398.788 212.819L398.816 212.32ZM397.088 212.192L397.125 211.693L397.124 211.693L397.088 212.192ZM386.336 186.72H386.836V186.22H386.336V186.72ZM380.448 185.952L380.123 186.332L380.129 186.337L380.136 186.342L380.448 185.952ZM380.448 181.472L380.136 181.082L380.129 181.087L380.123 181.092L380.448 181.472ZM386.336 180.704V181.204H386.836V180.704H386.336ZM387.424 172.064L387.767 172.428L387.767 172.428L387.424 172.064ZM393.248 172.064L392.905 172.428L392.905 172.428L393.248 172.064ZM394.336 180.704H393.836V181.204H394.336V180.704ZM402.4 181.472L402.075 181.852L402.081 181.857L402.088 181.862L402.4 181.472ZM402.4 185.952L402.088 185.562L402.081 185.567L402.075 185.572L402.4 185.952ZM394.336 186.72V186.22H393.836V186.72H394.336ZM398.688 206.304L398.725 205.805L398.725 205.805L398.688 206.304ZM400.386 206.931C401.393 206.992 402.065 207.245 402.482 207.62C402.884 207.982 403.116 208.52 403.116 209.312H404.116C404.116 208.312 403.814 207.474 403.15 206.876C402.501 206.291 401.573 206 400.446 205.933L400.386 206.931ZM403.116 209.312C403.116 210.168 402.774 210.799 402.064 211.261L402.608 212.099C403.605 211.452 404.116 210.504 404.116 209.312H403.116ZM402.069 211.257C401.385 211.689 400.334 211.904 398.844 211.821L398.788 212.819C400.37 212.907 401.666 212.695 402.603 212.103L402.069 211.257ZM398.853 211.821L397.125 211.693L397.051 212.691L398.779 212.819L398.853 211.821ZM397.124 211.693C393.619 211.443 391.068 210.385 389.39 208.587C387.711 206.789 386.836 204.176 386.836 200.672H385.836C385.836 204.336 386.753 207.227 388.658 209.269C390.564 211.311 393.389 212.429 397.052 212.691L397.124 211.693ZM386.836 200.672V186.72H385.836V200.672H386.836ZM386.336 186.22H383.136V187.22H386.336V186.22ZM383.136 186.22C382.052 186.22 381.282 185.979 380.76 185.562L380.136 186.342C380.894 186.949 381.916 187.22 383.136 187.22V186.22ZM380.773 185.572C380.314 185.178 380.052 184.587 380.052 183.712H379.052C379.052 184.8 379.388 185.702 380.123 186.332L380.773 185.572ZM380.052 183.712C380.052 182.837 380.314 182.246 380.773 181.852L380.123 181.092C379.388 181.722 379.052 182.624 379.052 183.712H380.052ZM380.76 181.862C381.282 181.445 382.052 181.204 383.136 181.204V180.204C381.916 180.204 380.894 180.475 380.136 181.082L380.76 181.862ZM383.136 181.204H386.336V180.204H383.136V181.204ZM386.836 180.704V174.816H385.836V180.704H386.836ZM386.836 174.816C386.836 173.778 387.158 173.001 387.767 172.428L387.081 171.7C386.24 172.492 385.836 173.55 385.836 174.816H386.836ZM387.767 172.428C388.378 171.853 389.226 171.54 390.368 171.54V170.54C389.036 170.54 387.921 170.91 387.081 171.7L387.767 172.428ZM390.368 171.54C391.462 171.54 392.291 171.85 392.905 172.428L393.591 171.7C392.755 170.913 391.663 170.54 390.368 170.54V171.54ZM392.905 172.428C393.514 173.001 393.836 173.778 393.836 174.816H394.836C394.836 173.55 394.432 172.492 393.591 171.7L392.905 172.428ZM393.836 174.816V180.704H394.836V174.816H393.836ZM394.336 181.204H399.776V180.204H394.336V181.204ZM399.776 181.204C400.863 181.204 401.602 181.446 402.075 181.852L402.725 181.092C402.003 180.474 400.993 180.204 399.776 180.204V181.204ZM402.088 181.862C402.585 182.261 402.86 182.849 402.86 183.712H403.86C403.86 182.612 403.495 181.707 402.712 181.082L402.088 181.862ZM402.86 183.712C402.86 184.575 402.585 185.163 402.088 185.562L402.712 186.342C403.495 185.717 403.86 184.812 403.86 183.712H402.86ZM402.075 185.572C401.602 185.978 400.863 186.22 399.776 186.22V187.22C400.993 187.22 402.003 186.95 402.725 186.332L402.075 185.572ZM399.776 186.22H394.336V187.22H399.776V186.22ZM393.836 186.72V201.248H394.836V186.72H393.836ZM393.836 201.248C393.836 202.897 394.214 204.241 395.045 205.206C395.881 206.178 397.111 206.689 398.651 206.803L398.725 205.805C397.364 205.705 396.417 205.268 395.803 204.554C395.183 203.834 394.836 202.757 394.836 201.248H393.836ZM398.651 206.803L400.379 206.931L400.453 205.933L398.725 205.805L398.651 206.803ZM426.952 211.232L426.588 211.575L426.593 211.581L426.598 211.586L426.952 211.232ZM426.888 167.904L426.545 167.54L426.54 167.545L426.534 167.55L426.888 167.904ZM433.992 173.472V172.972H433.492V173.472H433.992ZM433.992 185.76H433.492V186.26H433.992V185.76ZM433.992 192.352V191.852H433.492V192.352H433.992ZM432.904 211.232L432.54 210.889L432.54 210.889L432.904 211.232ZM429.96 211.884C428.835 211.884 427.966 211.539 427.306 210.878L426.598 211.586C427.474 212.461 428.61 212.884 429.96 212.884V211.884ZM427.316 210.889C426.693 210.229 426.364 209.357 426.364 208.224H425.364C425.364 209.566 425.761 210.699 426.588 211.575L427.316 210.889ZM426.364 208.224V170.784H425.364V208.224H426.364ZM426.364 170.784C426.364 169.64 426.677 168.822 427.242 168.258L426.534 167.55C425.734 168.351 425.364 169.453 425.364 170.784H426.364ZM427.231 168.268C427.842 167.693 428.69 167.38 429.832 167.38V166.38C428.5 166.38 427.385 166.75 426.545 167.54L427.231 168.268ZM429.832 167.38H452.296V166.38H429.832V167.38ZM452.296 167.38C453.538 167.38 454.376 167.646 454.9 168.093C455.408 168.526 455.7 169.198 455.7 170.208H456.7C456.7 168.999 456.342 168.008 455.548 167.331C454.77 166.668 453.657 166.38 452.296 166.38V167.38ZM455.7 170.208C455.7 171.193 455.41 171.849 454.903 172.272C454.38 172.71 453.54 172.972 452.296 172.972V173.972C453.655 173.972 454.767 173.69 455.545 173.04C456.34 172.375 456.7 171.399 456.7 170.208H455.7ZM452.296 172.972H433.992V173.972H452.296V172.972ZM433.492 173.472V185.76H434.492V173.472H433.492ZM433.992 186.26H451.016V185.26H433.992V186.26ZM451.016 186.26C452.258 186.26 453.096 186.526 453.62 186.973C454.128 187.406 454.42 188.078 454.42 189.088H455.42C455.42 187.879 455.062 186.888 454.268 186.211C453.49 185.548 452.377 185.26 451.016 185.26V186.26ZM454.42 189.088C454.42 190.073 454.13 190.729 453.623 191.152C453.1 191.59 452.26 191.852 451.016 191.852V192.852C452.375 192.852 453.487 192.57 454.265 191.92C455.06 191.255 455.42 190.279 455.42 189.088H454.42ZM451.016 191.852H433.992V192.852H451.016V191.852ZM433.492 192.352V208.224H434.492V192.352H433.492ZM433.492 208.224C433.492 209.357 433.163 210.229 432.54 210.889L433.268 211.575C434.095 210.699 434.492 209.566 434.492 208.224H433.492ZM432.54 210.889C431.926 211.539 431.085 211.884 429.96 211.884V212.884C431.309 212.884 432.431 212.461 433.268 211.575L432.54 210.889ZM466.609 210.528L466.367 210.965L466.37 210.967L466.609 210.528ZM461.041 204.832L461.482 204.596L461.482 204.596L461.041 204.832ZM461.041 187.616L461.48 187.855L461.482 187.852L461.041 187.616ZM466.609 181.92L466.37 181.481L466.367 181.483L466.609 181.92ZM483.441 181.92L483.199 182.357L483.202 182.359L483.441 181.92ZM489.009 187.616L488.565 187.846L488.57 187.855L489.009 187.616ZM489.009 204.832L488.568 204.596L488.565 204.602L489.009 204.832ZM483.441 210.528L483.202 210.089L483.199 210.091L483.441 210.528ZM480.945 188.704L480.551 189.012L480.555 189.016L480.945 188.704ZM469.105 188.704L468.715 188.39L468.715 188.392L469.105 188.704ZM475.057 212.012C471.927 212.012 469.196 211.366 466.848 210.089L466.37 210.967C468.886 212.336 471.787 213.012 475.057 213.012V212.012ZM466.851 210.091C464.549 208.816 462.761 206.988 461.482 204.596L460.6 205.068C461.967 207.625 463.891 209.595 466.367 210.965L466.851 210.091ZM461.482 204.596C460.204 202.206 459.557 199.409 459.557 196.192H458.557C458.557 199.545 459.232 202.509 460.6 205.068L461.482 204.596ZM459.557 196.192C459.557 192.975 460.204 190.201 461.48 187.855L460.602 187.377C459.232 189.895 458.557 192.839 458.557 196.192H459.557ZM461.482 187.852C462.761 185.46 464.549 183.632 466.851 182.357L466.367 181.483C463.891 182.853 461.967 184.823 460.6 187.38L461.482 187.852ZM466.848 182.359C469.196 181.082 471.927 180.436 475.057 180.436V179.436C471.787 179.436 468.886 180.112 466.37 181.481L466.848 182.359ZM475.057 180.436C478.187 180.436 480.895 181.082 483.199 182.357L483.683 181.483C481.208 180.112 478.327 179.436 475.057 179.436V180.436ZM483.202 182.359C485.546 183.634 487.331 185.459 488.565 187.846L489.453 187.386C488.127 184.823 486.2 182.852 483.68 181.481L483.202 182.359ZM488.57 187.855C489.846 190.201 490.493 192.975 490.493 196.192H491.493C491.493 192.839 490.818 189.895 489.448 187.377L488.57 187.855ZM490.493 196.192C490.493 199.409 489.846 202.206 488.568 204.596L489.45 205.068C490.818 202.509 491.493 199.545 491.493 196.192H490.493ZM488.565 204.602C487.331 206.989 485.546 208.814 483.202 210.089L483.68 210.967C486.2 209.596 488.127 207.625 489.453 205.062L488.565 204.602ZM483.199 210.091C480.895 211.366 478.187 212.012 475.057 212.012V213.012C478.327 213.012 481.208 212.336 483.683 210.965L483.199 210.091ZM474.993 206.804C477.715 206.804 479.857 205.905 481.335 204.056L480.555 203.432C479.303 204.997 477.476 205.804 474.993 205.804V206.804ZM481.335 204.056C482.8 202.225 483.493 199.577 483.493 196.192H482.493C482.493 199.463 481.82 201.849 480.555 203.432L481.335 204.056ZM483.493 196.192C483.493 192.848 482.8 190.222 481.335 188.392L480.555 189.016C481.821 190.599 482.493 192.966 482.493 196.192H483.493ZM481.339 188.396C479.864 186.506 477.744 185.58 475.057 185.58V186.58C477.49 186.58 479.296 187.403 480.551 189.012L481.339 188.396ZM475.057 185.58C472.37 185.58 470.232 186.506 468.715 188.39L469.495 189.018C470.794 187.404 472.624 186.58 475.057 186.58V185.58ZM468.715 188.392C467.25 190.222 466.557 192.848 466.557 196.192H467.557C467.557 192.966 468.229 190.599 469.495 189.016L468.715 188.392ZM466.557 196.192C466.557 199.577 467.25 202.225 468.715 204.056L469.495 203.432C468.23 201.849 467.557 199.463 467.557 196.192H466.557ZM468.715 204.056C470.192 205.903 472.31 206.804 474.993 206.804V205.804C472.556 205.804 470.749 204.999 469.495 203.432L468.715 204.056ZM525.246 181.088L525.588 180.724L525.246 181.088ZM525.182 211.36L524.849 210.986L524.844 210.991L524.839 210.996L525.182 211.36ZM519.55 211.424L519.891 211.059L519.891 211.059L519.55 211.424ZM518.526 207.2H519.026V205.327L518.092 206.951L518.526 207.2ZM514.558 211.168L514.795 211.608L514.803 211.603L514.558 211.168ZM498.494 181.088L498.836 181.452L498.836 181.452L498.494 181.088ZM504.318 181.088L503.975 181.452L503.975 181.452L504.318 181.088ZM506.75 204.576L506.367 204.898L506.367 204.898L506.75 204.576ZM516.286 204L515.916 203.663L515.916 203.663L516.286 204ZM522.302 180.564C523.444 180.564 524.291 180.877 524.903 181.452L525.588 180.724C524.749 179.934 523.634 179.564 522.302 179.564V180.564ZM524.903 181.452C525.512 182.025 525.833 182.802 525.833 183.84H526.833C526.833 182.574 526.43 181.516 525.588 180.724L524.903 181.452ZM525.833 183.84V208.672H526.833V183.84H525.833ZM525.833 208.672C525.833 209.651 525.501 210.407 524.849 210.986L525.514 211.734C526.398 210.948 526.833 209.911 526.833 208.672H525.833ZM524.839 210.996C524.224 211.574 523.396 211.884 522.302 211.884V212.884C523.597 212.884 524.688 212.511 525.524 211.724L524.839 210.996ZM522.302 211.884C521.246 211.884 520.461 211.593 519.891 211.059L519.208 211.789C520.003 212.535 521.053 212.884 522.302 212.884V211.884ZM519.891 211.059C519.328 210.531 519.026 209.799 519.026 208.8H518.026C518.026 210.02 518.405 211.037 519.208 211.789L519.891 211.059ZM519.026 208.8V207.2H518.026V208.8H519.026ZM518.092 206.951C517.154 208.582 515.895 209.839 514.312 210.733L514.803 211.603C516.548 210.619 517.934 209.231 518.959 207.449L518.092 206.951ZM514.32 210.728C512.737 211.58 510.942 212.012 508.926 212.012V213.012C511.09 213.012 513.05 212.548 514.795 211.608L514.32 210.728ZM508.926 212.012C505.178 212.012 502.455 210.963 500.659 208.947C498.853 206.92 497.906 203.83 497.906 199.584H496.906C496.906 203.957 497.878 207.33 499.912 209.613C501.956 211.906 504.993 213.012 508.926 213.012V212.012ZM497.906 199.584V183.84H496.906V199.584H497.906ZM497.906 183.84C497.906 182.802 498.227 182.025 498.836 181.452L498.151 180.724C497.309 181.516 496.906 182.574 496.906 183.84H497.906ZM498.836 181.452C499.451 180.874 500.279 180.564 501.374 180.564V179.564C500.078 179.564 498.987 179.937 498.151 180.724L498.836 181.452ZM501.374 180.564C502.516 180.564 503.363 180.877 503.975 181.452L504.66 180.724C503.821 179.934 502.706 179.564 501.374 179.564V180.564ZM503.975 181.452C504.584 182.025 504.906 182.802 504.906 183.84H505.906C505.906 182.574 505.502 181.516 504.66 180.724L503.975 181.452ZM504.906 183.84V199.648H505.906V183.84H504.906ZM504.906 199.648C504.906 201.919 505.361 203.701 506.367 204.898L507.132 204.254C506.346 203.318 505.906 201.815 505.906 199.648H504.906ZM506.367 204.898C507.39 206.116 508.964 206.676 510.974 206.676V205.676C509.143 205.676 507.901 205.17 507.132 204.254L506.367 204.898ZM510.974 206.676C513.313 206.676 515.225 205.906 516.655 204.337L515.916 203.663C514.701 204.996 513.072 205.676 510.974 205.676V206.676ZM516.655 204.337C518.12 202.734 518.834 200.642 518.834 198.112H517.834C517.834 200.446 517.181 202.279 515.916 203.663L516.655 204.337ZM518.834 198.112V183.84H517.834V198.112H518.834ZM518.834 183.84C518.834 182.802 519.155 182.025 519.764 181.452L519.079 180.724C518.237 181.516 517.834 182.574 517.834 183.84H518.834ZM519.764 181.452C520.379 180.874 521.207 180.564 522.302 180.564V179.564C521.006 179.564 519.915 179.937 519.079 180.724L519.764 181.452ZM561.22 183.136L561.599 182.81L561.599 182.81L561.22 183.136ZM562.884 211.36L562.541 210.996L562.536 211.001L562.53 211.006L562.884 211.36ZM557.06 211.36L557.403 210.996L557.403 210.996L557.06 211.36ZM554.564 187.936L554.175 188.25L554.182 188.259L554.564 187.936ZM544.708 188.448L544.349 188.1L544.344 188.105L544.708 188.448ZM541.572 211.36L541.229 210.996L541.229 210.996L541.572 211.36ZM535.684 211.36L535.33 211.714L535.336 211.719L535.341 211.724L535.684 211.36ZM535.748 181.088L535.405 180.724L535.405 180.724L535.748 181.088ZM541.38 181.088L541.026 181.442L541.037 181.453L541.049 181.463L541.38 181.088ZM542.468 185.376H541.968V187.156L542.895 185.636L542.468 185.376ZM552.836 180.436C556.497 180.436 559.13 181.473 560.841 183.462L561.599 182.81C559.64 180.532 556.685 179.436 552.836 179.436V180.436ZM560.841 183.462C562.565 185.467 563.472 188.549 563.472 192.8H564.472C564.472 188.432 563.544 185.071 561.599 182.81L560.841 183.462ZM563.472 192.8V208.544H564.472V192.8H563.472ZM563.472 208.544C563.472 209.631 563.146 210.426 562.541 210.996L563.227 211.724C564.072 210.928 564.472 209.847 564.472 208.544H563.472ZM562.53 211.006C561.966 211.571 561.148 211.884 560.004 211.884V212.884C561.335 212.884 562.437 212.514 563.238 211.714L562.53 211.006ZM560.004 211.884C558.862 211.884 558.014 211.571 557.403 210.996L556.717 211.724C557.557 212.514 558.672 212.884 560.004 212.884V211.884ZM557.403 210.996C556.798 210.426 556.472 209.631 556.472 208.544H555.472C555.472 209.847 555.872 210.928 556.717 211.724L557.403 210.996ZM556.472 208.544V193.248H555.472V208.544H556.472ZM556.472 193.248C556.472 190.771 555.998 188.856 554.946 187.613L554.182 188.259C555.008 189.234 555.472 190.861 555.472 193.248H556.472ZM554.953 187.622C553.93 186.355 552.33 185.772 550.276 185.772V186.772C552.148 186.772 553.406 187.298 554.175 188.25L554.953 187.622ZM550.276 185.772C547.857 185.772 545.865 186.538 544.349 188.1L545.067 188.796C546.367 187.456 548.087 186.772 550.276 186.772V185.772ZM544.344 188.105C542.873 189.668 542.16 191.742 542.16 194.272H543.16C543.16 191.938 543.812 190.129 545.072 188.791L544.344 188.105ZM542.16 194.272V208.544H543.16V194.272H542.16ZM542.16 208.544C542.16 209.631 541.834 210.426 541.229 210.996L541.915 211.724C542.76 210.928 543.16 209.847 543.16 208.544H542.16ZM541.229 210.996C540.618 211.571 539.77 211.884 538.628 211.884V212.884C539.96 212.884 541.075 212.514 541.915 211.724L541.229 210.996ZM538.628 211.884C537.486 211.884 536.638 211.571 536.027 210.996L535.341 211.724C536.181 212.514 537.296 212.884 538.628 212.884V211.884ZM536.038 211.006C535.47 210.439 535.16 209.639 535.16 208.544H534.16C534.16 209.838 534.533 210.916 535.33 211.714L536.038 211.006ZM535.16 208.544V183.776H534.16V208.544H535.16ZM535.16 183.776C535.16 182.787 535.478 182.029 536.091 181.452L535.405 180.724C534.568 181.512 534.16 182.546 534.16 183.776H535.16ZM536.091 181.452C536.702 180.877 537.55 180.564 538.692 180.564V179.564C537.36 179.564 536.245 179.934 535.405 180.724L536.091 181.452ZM538.692 180.564C539.69 180.564 540.452 180.867 541.026 181.442L541.734 180.734C540.943 179.944 539.913 179.564 538.692 179.564V180.564ZM541.049 181.463C541.655 181.998 541.968 182.708 541.968 183.648H542.968C542.968 182.454 542.556 181.458 541.711 180.713L541.049 181.463ZM541.968 183.648V185.376H542.968V183.648H541.968ZM542.895 185.636C543.915 183.963 545.277 182.683 546.988 181.787L546.524 180.901C544.651 181.882 543.154 183.29 542.041 185.116L542.895 185.636ZM546.988 181.787C548.7 180.89 550.646 180.436 552.836 180.436V179.436C550.504 179.436 548.396 179.921 546.524 180.901L546.988 181.787ZM601.154 167.584L600.821 167.958L600.821 167.958L601.154 167.584ZM601.218 211.296L601.56 211.66L601.56 211.66L601.218 211.296ZM595.458 211.296L595.115 211.66L595.115 211.66L595.458 211.296ZM594.37 206.944H594.87L593.929 206.708L594.37 206.944ZM590.274 211.04L590.033 210.601L590.029 210.604L590.274 211.04ZM577.026 210.464L576.752 210.883L576.756 210.885L577.026 210.464ZM572.098 204.704L571.643 204.912L571.647 204.921L572.098 204.704ZM572.098 187.552L571.649 187.332L571.646 187.338L572.098 187.552ZM577.026 181.92L576.758 181.497L576.758 181.497L577.026 181.92ZM590.274 181.344L590.037 181.785L590.037 181.785L590.274 181.344ZM594.306 185.312L593.867 185.553L594.806 185.312H594.306ZM595.33 167.584L595.671 167.949L595.672 167.948L595.33 167.584ZM592.258 203.68L591.868 203.366L591.863 203.372L592.258 203.68ZM592.258 188.768L591.863 189.076L591.872 189.086L592.258 188.768ZM580.482 188.704L580.096 188.386L580.096 188.386L580.482 188.704ZM580.482 203.616L580.875 203.307L580.875 203.307L580.482 203.616ZM598.21 167.06C599.303 167.06 600.16 167.369 600.821 167.958L601.486 167.21C600.611 166.433 599.505 166.06 598.21 166.06V167.06ZM600.821 167.958C601.473 168.537 601.806 169.293 601.806 170.272H602.806C602.806 169.033 602.37 167.996 601.486 167.21L600.821 167.958ZM601.806 170.272V208.544H602.806V170.272H601.806ZM601.806 208.544C601.806 209.582 601.484 210.359 600.875 210.932L601.56 211.66C602.402 210.868 602.806 209.81 602.806 208.544H601.806ZM600.875 210.932C600.26 211.51 599.432 211.82 598.338 211.82V212.82C599.633 212.82 600.724 212.447 601.56 211.66L600.875 210.932ZM598.338 211.82C597.243 211.82 596.415 211.51 595.8 210.932L595.115 211.66C595.951 212.447 597.042 212.82 598.338 212.82V211.82ZM595.8 210.932C595.191 210.359 594.87 209.582 594.87 208.544H593.87C593.87 209.81 594.273 210.868 595.115 211.66L595.8 210.932ZM594.87 208.544V206.944H593.87V208.544H594.87ZM593.929 206.708C593.037 208.369 591.743 209.665 590.033 210.601L590.514 211.479C592.388 210.452 593.824 209.018 594.81 207.18L593.929 206.708ZM590.029 210.604C588.363 211.538 586.444 212.012 584.258 212.012V213.012C586.593 213.012 588.685 212.504 590.518 211.476L590.029 210.604ZM584.258 212.012C581.659 212.012 579.343 211.353 577.295 210.043L576.756 210.885C578.975 212.305 581.48 213.012 584.258 213.012V212.012ZM577.299 210.045C575.292 208.735 573.707 206.888 572.548 204.487L571.647 204.921C572.877 207.469 574.578 209.463 576.752 210.883L577.299 210.045ZM572.552 204.496C571.435 202.054 570.87 199.247 570.87 196.064H569.87C569.87 199.366 570.456 202.319 571.643 204.912L572.552 204.496ZM570.87 196.064C570.87 192.88 571.435 190.119 572.549 187.766L571.646 187.338C570.456 189.849 569.87 192.762 569.87 196.064H570.87ZM572.546 187.772C573.704 185.415 575.287 183.611 577.293 182.343L576.758 181.497C574.582 182.874 572.88 184.825 571.649 187.332L572.546 187.772ZM577.293 182.343C579.295 181.076 581.611 180.436 584.258 180.436V179.436C581.442 179.436 578.937 180.119 576.758 181.497L577.293 182.343ZM584.258 180.436C586.448 180.436 588.37 180.89 590.037 181.785L590.51 180.903C588.678 179.921 586.59 179.436 584.258 179.436V180.436ZM590.037 181.785C591.703 182.679 592.976 183.933 593.867 185.553L594.744 185.071C593.757 183.278 592.343 181.887 590.51 180.903L590.037 181.785ZM594.806 185.312V170.144H593.806V185.312H594.806ZM594.806 170.144C594.806 169.194 595.104 168.481 595.671 167.949L594.988 167.219C594.19 167.967 593.806 168.96 593.806 170.144H594.806ZM595.672 167.948C596.287 167.37 597.115 167.06 598.21 167.06V166.06C596.914 166.06 595.823 166.433 594.987 167.22L595.672 167.948ZM586.37 206.804C589.057 206.804 591.176 205.878 592.652 203.988L591.863 203.372C590.608 204.981 588.802 205.804 586.37 205.804V206.804ZM592.647 203.994C594.152 202.123 594.87 199.499 594.87 196.192H593.87C593.87 199.37 593.179 201.738 591.868 203.366L592.647 203.994ZM594.87 196.192C594.87 192.886 594.153 190.28 592.643 188.45L591.872 189.086C593.178 190.67 593.87 193.013 593.87 196.192H594.87ZM592.652 188.46C591.178 186.572 589.081 185.644 586.434 185.644V186.644C588.82 186.644 590.606 187.465 591.863 189.076L592.652 188.46ZM586.434 185.644C583.75 185.644 581.614 186.545 580.096 188.386L580.867 189.022C582.165 187.449 583.997 186.644 586.434 186.644V185.644ZM580.096 188.386C578.587 190.215 577.87 192.798 577.87 196.064H578.87C578.87 192.93 579.56 190.607 580.867 189.022L580.096 188.386ZM577.87 196.064C577.87 199.372 578.587 202.014 580.088 203.925L580.875 203.307C579.56 201.634 578.87 199.241 578.87 196.064H577.87ZM580.088 203.925C581.602 205.851 583.717 206.804 586.37 206.804V205.804C583.987 205.804 582.177 204.965 580.875 203.307L580.088 203.925Z" fill="black"/>
</g>
<defs>
<linearGradient id="paint0_linear" x1="467.265" y1="234.524" x2="467.265" y2="301.051" gradientUnits="userSpaceOnUse">
<stop stop-color="white"/>
<stop offset="0.13" stop-color="#FFF9E0"/>
<stop offset="0.3" stop-color="#FFF3BD"/>
<stop offset="0.47" stop-color="#FFEEA2"/>
<stop offset="0.64" stop-color="#FFEA8E"/>
<stop offset="0.82" stop-color="#FFE883"/>
<stop offset="1" stop-color="#FFE77F"/>
</linearGradient>
<radialGradient id="paint1_radial" cx="0" cy="0" r="1" gradientUnits="userSpaceOnUse" gradientTransform="translate(-295465 8309.72) rotate(-179.427) scale(8827.05 6543.39)">
<stop stop-color="white"/>
<stop offset="0.13" stop-color="#FFF9E0"/>
<stop offset="0.3" stop-color="#FFF3BD"/>
<stop offset="0.47" stop-color="#FFEEA2"/>
<stop offset="0.64" stop-color="#FFEA8E"/>
<stop offset="0.82" stop-color="#FFE883"/>
<stop offset="1" stop-color="#FFE77F"/>
</radialGradient>
<radialGradient id="paint2_radial" cx="0" cy="0" r="1" gradientUnits="userSpaceOnUse" gradientTransform="translate(17802.9 4018.8) rotate(90) scale(2810.08 4444.24)">
<stop stop-color="white"/>
<stop offset="0.13" stop-color="#FFF9E0"/>
<stop offset="0.3" stop-color="#FFF3BD"/>
<stop offset="0.47" stop-color="#FFEEA2"/>
<stop offset="0.64" stop-color="#FFEA8E"/>
<stop offset="0.82" stop-color="#FFE883"/>
<stop offset="1" stop-color="#FFE77F"/>
</radialGradient>
<radialGradient id="paint3_radial" cx="0" cy="0" r="1" gradientUnits="userSpaceOnUse" gradientTransform="translate(-297143 -99675.4) rotate(-163.142) scale(11979.4 7582.33)">
<stop stop-color="white"/>
<stop offset="0.13" stop-color="#FFF9E0"/>
<stop offset="0.3" stop-color="#FFF3BD"/>
<stop offset="0.47" stop-color="#FFEEA2"/>
<stop offset="0.64" stop-color="#FFEA8E"/>
<stop offset="0.82" stop-color="#FFE883"/>
<stop offset="1" stop-color="#FFE77F"/>
</radialGradient>
<radialGradient id="paint4_radial" cx="0" cy="0" r="1" gradientUnits="userSpaceOnUse" gradientTransform="translate(29959.1 -25498.8) rotate(-15.7086) scale(8894.78 7338.7)">
<stop stop-color="white"/>
<stop offset="0.13" stop-color="#FFF9E0"/>
<stop offset="0.3" stop-color="#FFF3BD"/>
<stop offset="0.47" stop-color="#FFEEA2"/>
<stop offset="0.64" stop-color="#FFEA8E"/>
<stop offset="0.82" stop-color="#FFE883"/>
<stop offset="1" stop-color="#FFE77F"/>
</radialGradient>
<linearGradient id="paint5_linear" x1="79983.6" y1="-33599.4" x2="80514.8" y2="-21203.2" gradientUnits="userSpaceOnUse">
<stop stop-color="white"/>
<stop offset="0.13" stop-color="#FFF9E0"/>
<stop offset="0.3" stop-color="#FFF3BD"/>
<stop offset="0.47" stop-color="#FFEEA2"/>
<stop offset="0.64" stop-color="#FFEA8E"/>
<stop offset="0.82" stop-color="#FFE883"/>
<stop offset="1" stop-color="#FFE77F"/>
</linearGradient>
<radialGradient id="paint6_radial" cx="0" cy="0" r="1" gradientUnits="userSpaceOnUse" gradientTransform="translate(-35210.6 -164201) rotate(-90.32) scale(6525.56 8818.86)">
<stop stop-color="white"/>
<stop offset="0.13" stop-color="#FFF9E0"/>
<stop offset="0.3" stop-color="#FFF3BD"/>
<stop offset="0.47" stop-color="#FFEEA2"/>
<stop offset="0.64" stop-color="#FFEA8E"/>
<stop offset="0.82" stop-color="#FFE883"/>
<stop offset="1" stop-color="#FFE77F"/>
</radialGradient>
<radialGradient id="paint7_radial" cx="0" cy="0" r="1" gradientUnits="userSpaceOnUse" gradientTransform="translate(-228070 37742.5) rotate(96.3402) scale(6089.13 8622.28)">
<stop stop-color="white"/>
<stop offset="0.13" stop-color="#FFF9E0"/>
<stop offset="0.3" stop-color="#FFF3BD"/>
<stop offset="0.47" stop-color="#FFEEA2"/>
<stop offset="0.64" stop-color="#FFEA8E"/>
<stop offset="0.82" stop-color="#FFE883"/>
<stop offset="1" stop-color="#FFE77F"/>
</radialGradient>
<radialGradient id="paint8_radial" cx="0" cy="0" r="1" gradientUnits="userSpaceOnUse" gradientTransform="translate(36735.1 9734.3) scale(9803.58 7501.3)">
<stop stop-color="white"/>
<stop offset="0.13" stop-color="#FFF9E0"/>
<stop offset="0.3" stop-color="#FFF3BD"/>
<stop offset="0.47" stop-color="#FFEEA2"/>
<stop offset="0.64" stop-color="#FFEA8E"/>
<stop offset="0.82" stop-color="#FFE883"/>
<stop offset="1" stop-color="#FFE77F"/>
</radialGradient>
<radialGradient id="paint9_radial" cx="0" cy="0" r="1" gradientUnits="userSpaceOnUse" gradientTransform="translate(50392.5 5115.34) rotate(90.7316) scale(4138.23 6823.15)">
<stop stop-color="white"/>
<stop offset="0.13" stop-color="#FFF9E0"/>
<stop offset="0.3" stop-color="#FFF3BD"/>
<stop offset="0.47" stop-color="#FFEEA2"/>
<stop offset="0.64" stop-color="#FFEA8E"/>
<stop offset="0.82" stop-color="#FFE883"/>
<stop offset="1" stop-color="#FFE77F"/>
</radialGradient>
<radialGradient id="paint10_radial" cx="0" cy="0" r="1" gradientUnits="userSpaceOnUse" gradientTransform="translate(27887 7244.33) rotate(90) scale(2810.01 4443.63)">
<stop stop-color="white"/>
<stop offset="0.588542" stop-color="#FFEB94"/>
<stop offset="0.75" stop-color="#FFEA8E"/>
<stop offset="0.82" stop-color="#FFE883"/>
<stop offset="1" stop-color="#FFE77F"/>
</radialGradient>
<radialGradient id="paint11_radial" cx="0" cy="0" r="1" gradientUnits="userSpaceOnUse" gradientTransform="translate(47755.9 7553.79) rotate(90) scale(2810.5 4443.63)">
<stop stop-color="white"/>
<stop offset="0.13" stop-color="#FFF9E0"/>
<stop offset="0.3" stop-color="#FFF3BD"/>
<stop offset="0.47" stop-color="#FFEEA2"/>
<stop offset="0.64" stop-color="#FFEA8E"/>
<stop offset="0.82" stop-color="#FFE883"/>
<stop offset="1" stop-color="#FFE77F"/>
</radialGradient>
<radialGradient id="paint12_radial" cx="0" cy="0" r="1" gradientUnits="userSpaceOnUse" gradientTransform="translate(37288.5 9192.04) scale(7026.18 4442.21)">
<stop stop-color="white"/>
<stop offset="0.13" stop-color="#FFF9E0"/>
<stop offset="0.3" stop-color="#FFF3BD"/>
<stop offset="0.47" stop-color="#FFEEA2"/>
<stop offset="0.64" stop-color="#FFEA8E"/>
<stop offset="0.82" stop-color="#FFE883"/>
<stop offset="1" stop-color="#FFE77F"/>
</radialGradient>
<clipPath id="clip0">
<rect width="719" height="942" fill="white"/>
</clipPath>
</defs>
</svg>
